<svg width="120" height="120" viewBox="0 0 120 120" fill="none" xmlns="http://www.w3.org/2000/svg">
<path d="M44.9298 23.7421C42.586 24.7265 33.5157 28.5 28.4532 38.2734C27.3751 40.3593 22.3126 50.1328 26.0392 58.7578C30.9845 70.1953 46.0313 67.4062 52.9454 78.164C58.8751 87.4218 46.5704 96.5156 51.8673 107.531C54.6329 113.273 61.0079 118.078 66.8907 118.523C85.2892 119.906 118.336 80.2734 104.906 49.1718C95.1095 26.5781 63.8907 15.8437 44.9298 23.7421Z" fill="url(#paint0_linear_24_729)"/>
<path d="M82.4296 41.5078L48.5624 28.9453C47.5312 28.5703 46.4062 29.0859 46.0312 30.1171L23.1562 91.6875C22.7812 92.7187 23.2968 93.8437 24.328 94.2187L58.1952 106.781C59.2265 107.156 60.3515 106.641 60.7265 105.609L83.6015 44.0156C83.9765 43.0078 83.4609 41.8828 82.4296 41.5078Z" fill="#2D548D"/>
<path opacity="0.09" d="M62.1328 73.0546C61.289 73.0546 60.4219 73.0312 59.5312 72.9843C46.3828 72.2578 35.6484 66.3984 30.8203 57.3281C23.1094 42.8437 30.6797 22.664 42.2812 16.3125C48.1406 13.0781 53.2265 13.1718 56.4609 13.8281C61.9922 14.9297 66.0703 17.4843 67.9453 21C69.9609 24.7734 68.8828 28.3125 67.7344 32.039C66.7031 35.3906 65.6484 38.8359 66.914 42.5625C68.039 45.8906 70.9687 46.9218 74.0859 48.0234C77.25 49.1484 80.5312 50.2968 82.289 53.9296C84.1406 57.7734 83.9062 63.0234 81.7734 66.1875C78.8672 70.4062 71.1797 73.0546 62.1328 73.0546ZM52.8047 13.7343C49.9219 13.7343 46.3359 14.3906 42.4219 16.5468C30.9375 22.8515 23.4375 42.8671 31.0781 57.2109C35.8594 66.2109 46.5234 71.9999 59.5781 72.7265C69.6094 73.289 78.4453 70.5937 81.5625 66.0468C83.6484 62.9765 83.8828 57.8203 82.0547 54.0703C80.3437 50.5312 77.1328 49.4062 74.0156 48.3046C70.8515 47.1796 67.8515 46.125 66.6797 42.6796C65.3906 38.8593 66.4687 35.3671 67.5 31.9687C68.625 28.289 69.7031 24.7968 67.7344 21.1172C65.9062 17.6718 61.875 15.164 56.4375 14.0859C55.3828 13.875 54.164 13.7343 52.8047 13.7343Z" fill="#AAAAD5"/>
<path opacity="0.2" d="M74.2266 38.4609L70.4766 40.9687L37.7344 62.9531L32.5547 66.4453L39.6798 47.2031L44.8829 43.7109L56.6251 35.8125L60.3751 33.3047L74.2266 38.4609Z" fill="#EEEDF3"/>
<path opacity="0.2" d="M81.6797 41.2265L77.9297 43.7343L33.8907 73.3125L28.6876 76.7812L31.2188 70.0078L36.3985 66.539V66.5156L73.0548 41.9297L76.8048 39.3984L81.6797 41.2265Z" fill="#EEEDF3"/>
<path d="M82.4295 41.5078L81.6795 41.2265L76.8045 39.4218L74.2264 38.4609L60.3748 33.3281L48.5623 28.9453C47.5545 28.5703 46.4061 29.0859 46.0311 30.1171L39.6795 47.2265L32.5311 66.4687L31.1951 70.0546L28.6873 76.8281L23.1561 91.7343C23.0858 91.9218 23.0623 92.1093 23.0389 92.2968C22.9686 93.1406 23.4842 93.9609 24.3279 94.2656L30.6092 96.6093L35.3436 98.3671L47.8592 103.008L52.4295 104.695L58.1951 106.828C59.2029 107.203 60.3514 106.687 60.7264 105.68L83.1795 45.2109L83.6014 44.0859C83.9764 43.0078 83.4608 41.8828 82.4295 41.5078ZM79.2186 45.3281L78.7498 46.6171L59.4139 98.7187C59.2029 99.2578 58.5936 99.5624 58.0311 99.3515L53.7889 97.7812L48.6561 95.8828L38.0623 91.9453L33.2108 90.1406L29.3436 88.7109C28.9217 88.5468 28.6639 88.1718 28.6639 87.75C28.6639 87.6093 28.6639 87.4687 28.7342 87.3281L33.9373 73.3359L36.4451 66.5625L37.7811 62.9765L44.9295 43.7343L48.5623 33.9609C48.7733 33.4218 49.3826 33.1171 49.9217 33.3281L56.6717 35.8359L70.5233 40.9687L73.1014 41.9296L77.9764 43.7343L78.6092 43.9687C79.1483 44.1796 79.4295 44.789 79.2186 45.3281Z" fill="#EEEDF3"/>
<path d="M40.3123 97.9687C39.3514 97.6172 38.8592 96.539 39.2107 95.5781C39.5623 94.6172 40.6404 94.125 41.6014 94.4765C42.5623 94.8281 43.0545 95.9062 42.7029 96.8672C42.3279 97.8515 41.2498 98.3203 40.3123 97.9687Z" fill="#C9C7D9"/>
<path opacity="0.1" d="M62.9531 5.17965L15.6797 20.8359C14.5312 21.2109 13.9218 22.4531 14.2968 23.5781L18.8906 37.4062C19.2656 38.5547 20.5078 39.164 21.6328 38.789L26.2968 37.2422L28.5703 36.4922C29.1562 36.8672 30.6093 37.8515 31.1953 38.2031C31.7343 38.5078 32.4375 38.2734 32.6953 37.7109C32.9765 37.0781 33.5625 35.4375 33.7968 34.7812L45.2812 30.9609L68.9062 23.1328C70.0546 22.7578 70.664 21.5156 70.289 20.3906L65.6953 6.56246C65.3203 5.41403 64.1015 4.80465 62.9531 5.17965Z" fill="#3F3F3F"/>
<path d="M62.953 1.52342L12.2342 18.3281C11.0155 18.7265 10.3592 20.0625 10.7577 21.2812L15.6796 36.1172C16.078 37.3359 17.4139 37.9922 18.6327 37.5937L23.6249 35.9297L26.0624 35.1328C26.6717 35.5547 28.2421 36.5859 28.8749 36.9609C29.4374 37.289 30.2108 37.0312 30.4921 36.4218C30.7733 35.7422 31.4296 33.9609 31.6639 33.2812L43.9921 29.2031L69.3514 20.789C70.5702 20.3906 71.2264 19.0547 70.828 17.8359L65.9061 2.99998C65.5077 1.78123 64.1952 1.12498 62.953 1.52342Z" fill="url(#paint1_linear_24_729)"/>
<path d="M25.0778 25.2891C25.4294 24.6797 25.5232 23.9297 25.2888 23.2031L24.8903 22.0078C24.445 20.6719 23.0388 19.8516 21.6794 20.25C20.2732 20.6719 19.5232 22.1484 19.9685 23.5312L20.3903 24.8437C20.6247 25.5703 21.1638 26.1094 21.7966 26.3906C20.3435 27.4922 19.4997 29.25 19.6169 31.1016C19.6638 31.8281 20.3903 32.2734 21.07 32.0625L28.9919 29.4375C29.6716 29.2031 29.9763 28.4062 29.6013 27.7969C28.6169 26.2031 26.906 25.2891 25.0778 25.2891Z" fill="white"/>
<path d="M44.1561 12.7734L34.0545 16.125C33.2342 16.4062 32.7889 17.2969 33.0467 18.1172L34.6873 23.0859C34.9686 23.9062 35.8592 24.3516 36.6795 24.0937L37.6639 23.7656C37.6639 23.7656 39.5389 25.0312 40.1717 25.4062C40.6404 25.6641 41.2733 25.4766 41.4842 24.9609C41.7889 24.2812 42.5389 22.1484 42.5389 22.1484L46.7811 20.7422C47.6014 20.4609 48.0467 19.5703 47.7889 18.75L46.1483 13.7812C45.867 12.9375 44.9764 12.4922 44.1561 12.7734Z" fill="white"/>
<path d="M35.8122 18.4219C35.4841 18.4922 35.1325 18.3281 35.0388 18C34.9216 17.6484 35.1091 17.2734 35.4607 17.1797L43.6638 14.4609C43.9919 14.3437 44.3903 14.5312 44.4841 14.8828C44.6013 15.2344 44.4138 15.6094 44.0622 15.7031L35.8591 18.4219C35.8357 18.4219 35.8357 18.4219 35.8122 18.4219Z" fill="#E2E1E1"/>
<path d="M36.5153 20.5781C36.1872 20.6484 35.8357 20.4844 35.7419 20.1562C35.6247 19.8047 35.8122 19.4297 36.1638 19.3359L44.3669 16.6172C44.695 16.5 45.0935 16.6875 45.1872 17.039C45.3044 17.3906 45.1169 17.7656 44.7653 17.8594L36.5622 20.5781C36.5622 20.5547 36.5388 20.5781 36.5153 20.5781Z" fill="#E2E1E1"/>
<path d="M37.2422 22.7109C36.9141 22.7812 36.5625 22.6172 36.4687 22.289C36.3516 21.9375 36.5391 21.5625 36.8906 21.4687L40.5937 20.25C40.9219 20.1328 41.2969 20.3203 41.4141 20.6719C41.5312 21.0234 41.3437 21.3984 40.9922 21.4922L37.2891 22.7109C37.2656 22.7109 37.2656 22.7109 37.2422 22.7109Z" fill="#E2E1E1"/>
<path d="M65.2031 15.1172C64.875 14.1093 64.2187 13.2656 63.4219 12.7031L63.0703 11.625C62.4609 9.82028 60.6797 8.76559 58.8515 9.0234L58.7578 8.71872C58.6406 8.36715 58.2656 8.17965 57.914 8.29684C57.5625 8.41403 57.375 8.78903 57.4922 9.14059L57.5859 9.44528C55.9687 10.3125 55.1719 12.2343 55.7578 14.039L56.1094 15.1172C55.8047 16.0547 55.7812 17.1093 56.1094 18.1172L56.2734 18.5859C56.3437 18.8203 56.6015 18.9609 56.8359 18.8672L58.6406 18.2578C58.664 18.3984 58.7344 18.539 58.8984 18.5859C59.6484 18.8437 60.4922 18.8437 61.3125 18.5859C62.1328 18.3281 62.789 17.8125 63.2578 17.1562C63.3515 17.0156 63.3516 16.8515 63.2812 16.7343L65.0859 16.125C65.3203 16.0547 65.4609 15.7968 65.3672 15.5625L65.2031 15.1172Z" fill="white"/>
<path d="M57.5157 18.0937C57.8672 19.1484 57.2813 20.3203 56.2266 20.6719C55.1719 21.0234 54 20.4375 53.6485 19.3828C53.2969 18.3281 53.8828 17.1562 54.9375 16.8047C56.0157 16.4531 57.1641 17.0156 57.5157 18.0937Z" fill="#E83C3B"/>
<path opacity="0.1" d="M113.953 45L100.992 43.4531C100.43 43.3828 99.9374 43.7813 99.8671 44.3438L98.3202 57.3047C98.2499 57.8672 98.6483 58.3594 99.2108 58.4297L112.172 59.9766C112.734 60.0469 113.226 59.6485 113.297 59.086L114.844 46.125C114.914 45.5859 114.515 45.0703 113.953 45Z" fill="#3F3F3F"/>
<path d="M115.476 58.1719L100.336 56.3672C100.078 56.3438 99.8903 56.1094 99.9372 55.8516L101.742 40.7109C101.765 40.4531 102 40.2656 102.258 40.3125L117.398 42.1172C117.656 42.1406 117.843 42.375 117.797 42.6328L115.992 57.7734C115.968 58.0078 115.734 58.1953 115.476 58.1719Z" fill="#F8AA09"/>
<path d="M101.554 54.7031L103.054 42.1641C103.078 42 103.219 41.9062 103.359 41.9062L115.898 43.4062C116.062 43.4297 116.156 43.5703 116.156 43.7109L114.656 56.25C114.633 56.4141 114.492 56.5078 114.351 56.5078L101.812 55.0078C101.648 55.0078 101.554 54.8672 101.554 54.7031Z" fill="#FBBA38"/>
<path d="M109.172 50.2969L107.718 51.4453C107.461 51.6562 107.062 51.6094 106.851 51.3516C106.64 51.0937 106.265 51.0469 105.984 51.2578L103.851 52.9453C103.429 53.2734 103.617 53.9766 104.156 54.0469L104.414 54.0703L109.453 54.6797L112.289 55.0078C112.828 55.0781 113.179 54.4453 112.851 54.0234L110.039 50.3906C109.828 50.1328 109.429 50.0859 109.172 50.2969Z" fill="#EE9F05"/>
<path d="M106.57 47.8594C106.5 48.4453 105.96 48.8672 105.375 48.7969C104.789 48.7266 104.367 48.1875 104.437 47.6016C104.507 47.0156 105.046 46.5937 105.632 46.6641C106.218 46.7344 106.64 47.2734 106.57 47.8594Z" fill="#EE9F05"/>
<path opacity="0.1" d="M32.0156 81.7734C31.5235 80.2031 29.8594 79.3359 28.2891 79.8281L9.16407 85.875C7.59376 86.3672 6.72657 88.0312 7.21876 89.6015L11.1563 102.047C11.6484 103.617 13.3125 104.484 14.8828 103.992L16.7578 103.406C16.7578 103.406 20.25 105.82 21.4688 106.547C22.336 107.062 23.5313 106.687 23.9531 105.75C24.5391 104.461 25.9922 100.477 25.9922 100.477L34.0078 97.9453C35.5781 97.4531 36.4453 95.789 35.9531 94.2187L32.0156 81.7734Z" fill="#3F3F3F"/>
<path d="M24.9843 76.9922L4.47653 83.4844C2.78903 84.0234 1.87497 85.8047 2.39059 87.4922L6.60934 100.852C7.1484 102.539 8.92965 103.453 10.6172 102.938L12.6093 102.305C12.6093 102.305 16.3593 104.906 17.6484 105.68C18.5859 106.242 19.875 105.82 20.3203 104.836C20.9531 103.453 22.5 99.1641 22.5 99.1641L31.1015 96.4453C32.789 95.9062 33.7031 94.125 33.1875 92.4375L28.9687 79.0781C28.4765 77.3906 26.6718 76.4531 24.9843 76.9922Z" fill="url(#paint2_linear_24_729)"/>
<path d="M25.0547 83.9062L8.4141 89.1797C7.87504 89.3437 7.2891 89.0625 7.12504 88.5C6.96098 87.9609 7.26567 87.375 7.80473 87.2109L24.4454 81.9375C24.9844 81.7734 25.5704 82.0547 25.7344 82.6172C25.8985 83.1563 25.5938 83.7422 25.0547 83.9062Z" fill="#EDB7D5"/>
<path d="M26.531 88.6172L9.89042 93.8906C9.35136 94.0547 8.76542 93.7735 8.60136 93.211C8.4373 92.6719 8.74198 92.086 9.28105 91.9219L25.9217 86.6485C26.4607 86.4844 27.0467 86.7657 27.2107 87.3282C27.3748 87.8438 27.0701 88.4297 26.531 88.6172Z" fill="#EDB7D5"/>
<path d="M18.8905 96.1875L11.3905 98.5547C10.8514 98.7187 10.2655 98.414 10.1014 97.875C9.93736 97.3359 10.242 96.75 10.7811 96.5859L18.2811 94.2187C18.8202 94.0547 19.4061 94.3594 19.5702 94.8984C19.7342 95.4375 19.4295 96.0234 18.8905 96.1875Z" fill="#EDB7D5"/>
<path opacity="0.1" d="M66.9141 53.7188C66.6329 52.5234 65.0391 52.2656 64.3829 53.3203L61.7579 57.5625L60.2813 51.3984C59.9766 50.1563 58.7344 49.3828 57.4923 49.6875L40.5469 53.7188C39.3048 54.0234 38.5313 55.2656 38.836 56.5078L42.8673 73.4531C43.1719 74.6953 44.4141 75.4688 45.6563 75.1641L62.6016 71.1328C63.8438 70.8281 64.6173 69.5859 64.3126 68.3438L62.836 62.1797L67.0782 64.8047C68.1329 65.4609 69.4454 64.5 69.1407 63.3047L66.9141 53.7188Z" fill="#3F3F3F"/>
<path d="M66.3986 48.7031L63.5861 53.2734L62.0158 46.6641C61.6877 45.3281 60.3518 44.5078 59.0158 44.8125L40.8283 49.1484C39.4924 49.4765 38.6721 50.8125 38.9768 52.1484L43.3127 70.3359C43.6408 71.6719 44.9768 72.4922 46.3127 72.1875L64.5002 67.8516C65.8361 67.5234 66.6565 66.1875 66.3518 64.8516L64.7815 58.2422L69.3518 61.0547C70.4768 61.7578 71.883 60.7266 71.5783 59.4375L69.1174 49.1484C68.8127 47.8594 67.1018 47.5781 66.3986 48.7031Z" fill="#E83B5B"/>
<path d="M49.4297 53.6016L56.086 57.6797L51.9844 64.336" fill="white"/>
<path d="M78.9433 79.969L51.2856 84.3746L53.7741 99.9972L81.4318 95.5915L78.9433 79.969Z" fill="#E83C3B"/>
<path d="M66.3517 90L78.9376 79.9922L51.2814 84.3985L66.3517 90Z" fill="#EE7375"/>
<path d="M84.5624 106.805H100.383C100.851 106.805 101.25 106.406 101.25 105.937C101.25 105.469 100.851 105.07 100.383 105.07H84.5624C84.0937 105.07 83.6952 105.469 83.6952 105.937C83.6952 106.43 84.0702 106.805 84.5624 106.805Z" fill="#E2E2E1"/>
<path d="M89.7887 103.125L89.0387 98.5546L91.1012 97.9218L91.4294 102.797L89.7887 103.125Z" fill="#D7DDE9"/>
<path d="M91.4997 102.305C91.6404 102.328 91.7576 102.375 91.8747 102.469C92.6013 103.078 94.8279 104.156 95.9529 104.32C97.1716 104.508 97.2419 105.094 95.5076 105.094C93.7966 105.094 92.531 104.93 91.781 104.953C91.0076 104.976 91.2185 105.094 89.3435 105.094C87.8904 105.094 88.3591 103.242 88.8748 102.398C89.0388 102.141 89.2498 102 89.5544 102.023L91.4997 102.305Z" fill="#ED9558"/>
<path d="M83.156 98.8593L86.0154 95.2265L87.8669 96.3281L84.5154 99.8437L83.156 98.8593Z" fill="#D7DDE9"/>
<path d="M84.9372 99.5625C85.0075 99.6797 85.0779 99.7969 85.0779 99.9375C85.1247 100.875 85.8513 103.312 86.7185 104.086C87.5857 104.883 87.0232 105.07 85.6169 104.414C84.07 103.687 83.7185 102.117 83.1794 101.578C82.6404 101.039 82.6872 101.25 81.4216 99.8672C80.4372 98.8125 82.1013 97.8984 83.0857 97.6875C83.3904 97.6172 83.6247 97.6875 83.8122 97.9453L84.9372 99.5625Z" fill="#ED9558"/>
<path d="M81.8671 21.6094C81.8671 21.6094 81.3046 25.3594 82.3827 27.0937C83.4608 28.8281 83.6249 29.0859 83.6249 29.0859" fill="#ED8C61"/>
<path d="M84.6328 30.75C84.3282 30.9375 83.9766 31.0312 83.6485 31.0312C82.9922 31.0312 82.336 30.7031 81.9844 30.0703C81.961 30.0469 81.7735 29.7187 80.7657 28.125C80.0625 27 79.8282 25.4766 79.8047 24.1406C79.7578 22.8281 79.8985 21.7031 79.9688 21.3281C80.1328 20.2734 81.1172 19.5234 82.1953 19.6875C83.25 19.8516 84 20.8359 83.836 21.9141C83.7422 22.4766 83.7188 23.1328 83.7188 23.7422C83.7188 24.375 83.7657 24.9844 83.8594 25.4297C83.9063 25.6875 83.9766 25.9219 84.0704 26.0625C85.1719 27.8203 85.336 28.1016 85.336 28.1016C85.875 29.0156 85.5704 30.2109 84.6328 30.75Z" fill="#F6AD86"/>
<path d="M77.4374 52.2188C77.8358 46.6172 75.9608 32.7188 74.9999 27.1875C74.8592 26.3438 75.492 25.5703 76.3592 25.5703H87.867C88.4764 25.5703 89.0389 25.9922 89.203 26.5781C90.5155 31.5938 91.3592 52.1953 91.3592 52.1953H77.4374V52.2188Z" fill="#E8E8E8"/>
<path d="M96.4451 40.5703C96.2576 39.5156 94.9686 36.8203 93.5389 34.0078C92.0155 31.0312 90.3045 27.8906 89.5076 26.4844C89.0623 25.6875 88.0545 25.4062 87.2576 25.8281C86.4608 26.2734 86.1795 27.2812 86.6014 28.0781C87.8202 30.2812 89.0623 32.6015 90.1639 34.6875C91.4061 37.0781 92.6014 38.5312 93.0936 39.7031C92.203 40.4765 89.9764 40.5469 88.2186 40.4297C87.7264 40.3828 85.8514 40.2422 84.6092 41.3906C84.117 41.8359 83.5545 42.6562 83.6014 43.9453C83.6483 44.8359 83.7655 45.1875 84.5623 45.5859C84.8905 45.75 85.3123 45.7734 85.6639 45.75C86.578 45.6328 86.6483 45.1406 86.6483 44.0859C86.6483 43.3359 87.0467 42.5859 87.0467 42.5859C87.0467 42.5859 89.7186 43.2422 91.9451 43.5234C94.1717 43.8047 95.0858 43.3594 95.9061 42.4453C96.3748 41.9062 96.5623 41.2266 96.4451 40.5703Z" fill="#F6AD86"/>
<path d="M78.0469 61.2657C78.0469 61.2657 76.3594 58.1719 77.4375 52.2188H91.3359C91.3359 52.2188 91.5234 56.7422 91.2188 61.2657H78.0469Z" fill="#3A63A9"/>
<path d="M93.5153 34.0078L91.8981 34.3359L90.1637 34.6875C89.0856 32.6016 87.82 30.2578 86.6012 28.0781C86.1559 27.2813 86.4606 26.2735 87.2575 25.8281C88.0543 25.3828 89.0622 25.6875 89.5075 26.4844C90.2809 27.8906 91.9918 31.0313 93.5153 34.0078Z" fill="#ED8C61"/>
<path d="M77.8826 26.8828C77.6717 25.9922 76.7576 25.4531 75.8905 25.6875C71.9061 26.6719 69.1405 27.5625 67.2186 28.3828C62.7889 30.2578 62.8358 31.6406 62.8358 32.3438C62.8592 33.1406 63.0233 34.7109 72.5623 38.1797C72.5623 38.4609 72.2576 39.5391 72.0701 39.8906C71.6248 40.6875 72.0936 41.4609 72.5623 42.2344C72.7264 42.4922 73.1014 42.8203 73.5467 42.8203C74.1326 42.8203 74.8592 42.0703 74.953 41.4609C75.3045 39.2344 75.2576 37.9219 75.1405 37.6641C75.1405 37.6406 75.117 37.6172 75.117 37.5938C75.0701 37.5234 75.0467 37.4531 74.9998 37.3828C74.9764 37.3359 74.9295 37.3125 74.9061 37.2656C74.8592 37.2188 74.8358 37.1719 74.7889 37.1484C74.7186 37.0781 74.6483 37.0313 74.578 36.9844C74.5545 36.9844 74.5545 36.9609 74.5311 36.9609C74.4139 36.8906 74.2967 36.8203 74.1795 36.7734C70.9451 35.4375 67.9217 33.2813 66.5858 32.3438C67.0545 32.0859 67.7108 31.7578 68.5311 31.4531C70.5701 30.6328 73.5701 29.6719 76.6405 28.9219C77.5545 28.6641 78.0936 27.7734 77.8826 26.8828Z" fill="#F6AD86"/>
<path d="M93.7733 33.2813L91.5467 33.7031L89.8123 34.0313L88.3358 34.3125C86.4373 30.5859 85.992 29.7422 85.9217 28.4766C85.8514 27.0469 86.2264 26.3203 87.1639 25.8047C88.1014 25.2891 89.2733 25.6172 89.7889 26.5547C89.8358 26.625 91.8514 29.5078 93.7733 33.2813Z" fill="#E8E8E8"/>
<path d="M99.8203 79.6406C99.6094 81 98.8828 82.4766 97.8515 84.2813C96.1172 87.2813 93.4687 90.6328 91.0781 93.4219C89.414 95.3672 87.8906 97.0547 86.9297 98.2031C86.5078 98.6953 86.1797 99.0938 85.9922 99.3516L84.0234 96.8203C84.75 95.7891 85.4297 94.4063 86.2734 93.1172C86.2968 93.0938 86.3203 93.0469 86.3437 93.0235C87.9375 90.6094 89.6484 87.8906 91.0078 85.4063C91.0547 85.3125 91.1015 85.2422 91.1484 85.1485C92.6015 82.5235 93.6797 80.2031 93.8906 78.8438C94.2656 76.4297 90.6328 68.8828 87.0468 62.2266C86.6484 61.4531 86.2265 60.7031 85.8281 59.9766C85.6875 59.7188 85.6172 59.4609 85.5937 59.1797C85.5 57.9609 86.3906 56.5547 87.4922 55.9453C88.8281 55.1953 90.5625 54.8203 91.3125 56.1563C92.8359 58.9219 100.734 73.711 99.8203 79.6406Z" fill="#3A63A9"/>
<path d="M91.0778 93.4218C89.4137 95.3671 87.8903 97.0546 86.9294 98.2031C86.7653 96.8437 86.6012 95.3671 86.4372 93.8671C86.4137 93.5859 86.3669 93.2812 86.3434 93C87.9372 90.5859 89.6481 87.8671 91.0075 85.3828C91.1012 87.8437 91.1012 90.7265 91.0778 93.4218Z" fill="#2D548D"/>
<path d="M90.7264 80.3906C90.0467 74.8359 85.3827 59.9062 84.6561 58.2656C84.0467 56.8593 80.6717 56.5547 79.2655 57.1875C77.8592 57.7968 77.2264 59.4375 77.8358 60.8437C79.7108 65.1093 85.0311 76.5234 85.5702 80.5547C85.8748 82.9687 86.2967 87.8203 87.0467 91.9687C87.5858 94.8515 88.1248 97.664 88.5233 99.7031C88.8748 101.484 88.8748 101.156 88.8983 101.32L92.2264 100.805C92.2264 100.805 91.5233 86.9531 90.7264 80.3906Z" fill="#3A63A9"/>
<path d="M76.6639 28.875C73.5936 29.625 70.5936 30.5859 68.5545 31.4063L67.1952 28.3594C69.117 27.5625 71.8827 26.6485 75.867 25.6641C76.7577 25.4531 77.6483 25.9922 77.8592 26.8594C78.0936 27.7734 77.5545 28.6641 76.6639 28.875Z" fill="#ED8C61"/>
<path d="M75.914 25.6172C76.9687 25.4531 77.7421 25.9688 78.0234 27C78.3046 28.0313 77.6015 28.8281 76.664 29.3672C75.539 30.0234 75.1406 30.1641 70.3828 31.8047L67.7343 28.1484C73.8281 25.7813 74.1328 25.875 75.914 25.6172Z" fill="#E8E8E8"/>
<path d="M83.836 25.4297C83.7422 25.4297 83.6485 25.4297 83.5782 25.4297C82.1485 25.4297 80.836 24.9609 79.8047 24.1406C79.7578 22.8281 79.8985 21.7031 79.9688 21.3281C80.1328 20.2734 81.1172 19.5234 82.1954 19.6875C83.25 19.8516 84.0001 20.8359 83.836 21.9141C83.7422 22.4766 83.7188 23.1328 83.7188 23.7422C83.6719 24.3516 83.7188 24.9609 83.836 25.4297Z" fill="#ED8C61"/>
<path d="M89.3436 18.4922C88.5702 22.0781 86.578 24.7031 83.1327 24.7031C79.7108 24.7031 77.5546 22.1016 76.9218 18.4922C76.3593 15.1172 79.7108 11.8125 83.1327 11.8125C86.6014 11.7891 90.0702 15.1406 89.3436 18.4922Z" fill="#F6AD86"/>
<path d="M89.8124 101.344L89.789 101.25C88.8515 95.4375 87.4218 86.6719 86.7187 81.1406C86.2031 77.1094 81.2109 65.1562 79.3359 60.8906C79.3124 60.8672 79.3124 60.8203 79.3124 60.7969C79.3124 60.7734 79.3124 60.7734 79.289 60.75C78.9843 59.9297 78.0702 56.8828 78.9374 52.0781L79.2187 52.125C78.3515 56.8594 79.2655 59.8359 79.5468 60.6562C79.5468 60.6797 79.5702 60.7031 79.5702 60.7265C79.5702 60.75 79.5702 60.7734 79.5937 60.7969C81.4687 65.0625 86.4609 77.0625 86.9765 81.1172C87.7031 86.625 89.1093 95.414 90.0468 101.227L90.0702 101.32L89.8124 101.344Z" fill="#658BC1"/>
<path d="M85.3593 25.5937C85.3593 26.4375 85.0312 27.8437 82.828 27.8437C81.2343 27.8437 79.2187 27.164 78.4687 25.875L78.3046 25.5937H85.3593Z" fill="#C8D6DB"/>
<path d="M78.9606 25.5937C79.5465 26.625 81.3044 27.2812 82.8278 27.2812C84.3512 27.2812 84.7965 26.5312 84.7965 25.5937H78.9606Z" fill="#F6AD86"/>
<path d="M87.3045 42.914C87.3045 42.8906 87.3983 41.9531 86.4139 40.5937L87.328 40.0547C88.4764 41.7656 88.3592 42.9843 88.3592 43.0547L87.3045 42.914Z" fill="#82AACE"/>
<path d="M86.6013 40.0781C87.1169 39.8437 87.7966 39.9609 88.1482 40.3359C88.4763 40.7109 88.3357 41.2265 87.7966 41.4609C87.281 41.6953 86.6013 41.5781 86.2497 41.2031C85.9216 40.8047 86.0622 40.3125 86.6013 40.0781Z" fill="#4E7DB0"/>
<path d="M89.2031 13.8984C87.3281 10.875 82.7109 10.6406 81.8203 10.6875C81.3515 10.7109 80.3203 10.9922 79.875 11.6953C79.8515 11.2031 79.875 10.7578 79.875 10.7578C79.4765 11.25 79.4062 11.6719 79.4765 12C79.1953 11.625 79.0078 11.2266 79.0078 11.2266C78.9375 11.7422 79.0781 12.0469 79.289 12.2109C78.0234 12.5156 76.4062 14.2969 76.9687 17.9531C77.2031 19.5469 80.8125 18.3281 81.8203 16.7344C82.5 17.8359 83.8593 18.0703 83.8593 18.0703C83.3906 17.6016 82.9687 16.8984 82.6406 16.1953C84.5625 17.3672 87.1172 18.6328 87.4218 19.4062C87.4218 19.4062 87.9844 18.1641 87.5625 17.3672C87.5625 17.3672 89.0859 17.7422 89.2734 19.2656C89.25 19.2187 91.1953 17.1328 89.2031 13.8984Z" fill="#424344"/>
<path d="M84.7148 52.0705L84.4371 52.1154L85.9549 61.5092L86.2325 61.4644L84.7148 52.0705Z" fill="#658BC1"/>
<path d="M85.8044 59.7187L85.7575 59.4375C85.7575 59.4375 86.3434 59.3437 86.6481 58.8984C86.8356 58.6406 86.8825 58.3125 86.8356 57.9375L85.8747 51.9843L86.1559 51.9375L87.1168 57.8906C87.1872 58.3593 87.1168 58.7578 86.8825 59.0625C86.5075 59.625 85.8278 59.7187 85.8044 59.7187Z" fill="#658BC1"/>
<path d="M76.7342 18.1172C76.453 18.7266 76.4998 19.3828 76.7577 19.9453C77.0623 20.6016 78.0233 20.5547 78.3045 19.8984L79.1014 18.1172C79.4061 17.4609 78.7967 16.7344 78.0936 16.9219C77.5077 17.1094 76.992 17.5313 76.7342 18.1172Z" fill="#F6AD86"/>
<defs>
<linearGradient id="paint0_linear_24_729" x1="112.314" y1="108.129" x2="-6.59315" y2="-1.10462" gradientUnits="userSpaceOnUse">
<stop stop-color="#6FC7DA"/>
<stop offset="0.3693" stop-color="#0D71B9"/>
<stop offset="0.7613" stop-color="#9E1460"/>
<stop offset="1" stop-color="#E7267A"/>
</linearGradient>
<linearGradient id="paint1_linear_24_729" x1="62.2983" y1="42.3722" x2="10.7441" y2="-12.3101" gradientUnits="userSpaceOnUse">
<stop stop-color="#6FC7DA"/>
<stop offset="1" stop-color="#9E1460"/>
</linearGradient>
<linearGradient id="paint2_linear_24_729" x1="37.7701" y1="93.0602" x2="8.43927" y2="89.8522" gradientUnits="userSpaceOnUse">
<stop stop-color="#6FC7DA"/>
<stop offset="0.6927" stop-color="#9E1460"/>
<stop offset="1" stop-color="#E7267A"/>
</linearGradient>
</defs>
</svg>
