<svg width="211" height="174" viewBox="0 0 211 174" fill="none" xmlns="http://www.w3.org/2000/svg">
<path opacity="0.5" d="M32.2024 19.4912C48.6704 -3.74055 83.8678 4.80661 111 19.4912C125.836 27.5112 173 -15 195.975 6.50003C213 46.9778 189.457 57.9976 201.5 74C214.304 91.0191 211.464 105.829 203.52 125.672C193.799 149.807 168.226 153.535 145.737 161.856C53.6761 195.895 -40.2623 157.641 18.5 46C23.3606 36.6998 26.7978 27.21 32.2024 19.4912Z" fill="#CCE7F9"/>
<path d="M57.6401 65.8266C57.9701 65.8066 58.3201 65.7465 58.5601 65.5165C58.8301 65.2465 58.8601 64.8266 58.8701 64.4366C58.8701 64.3766 58.8701 64.3066 58.8301 64.2566C58.7901 64.1966 58.7101 64.1766 58.6401 64.1566C57.7701 63.9666 56.9001 63.7866 56.0401 63.5966C55.9101 63.5666 55.7801 63.5466 55.6601 63.5766C55.4701 63.6366 55.3501 63.8266 55.2801 64.0066C55.0901 64.4366 54.7601 65.4766 55.3901 65.7066C56.0201 65.9466 56.9501 65.8766 57.6401 65.8266Z" fill="#C89A81"/>
<path d="M44.6901 49.3366C45.0401 49.0966 45.4401 48.8966 45.8601 48.8866C46.5301 48.8866 47.0801 49.3766 47.5301 49.8666C48.9001 51.3466 50.0101 53.0966 50.5301 55.0366C50.7201 55.7566 50.8301 56.4966 51.0301 57.2166C51.2601 58.0266 51.6101 58.7966 51.9501 59.5666C52.3201 60.3766 52.6901 61.2066 53.2701 61.8866C53.8501 62.5666 54.6701 63.0866 55.5601 63.1066C55.5501 64.0966 55.2901 65.0766 54.8101 65.9366C54.7701 66.0066 54.7301 66.0766 54.6601 66.1066C54.5801 66.1366 54.4901 66.1166 54.4101 66.0866C53.6001 65.8066 52.8701 65.3166 52.2001 64.7866C48.2301 61.6866 44.9501 56.9566 43.0401 52.3066C42.5301 51.0166 43.6701 50.0266 44.6901 49.3366Z" fill="#F2F2F2"/>
<path d="M36.3001 43.0066C36.7701 44.1566 37.3801 45.2666 38.2501 46.1566C39.1201 47.0466 40.2801 47.6866 41.5201 47.7566C43.4501 47.8766 45.2701 46.5566 46.1501 44.8366C46.5401 44.0766 46.7701 43.2566 46.9601 42.4266C47.4201 40.3966 47.6201 38.3165 47.6501 36.2365C47.6701 34.7765 47.5801 33.2066 46.7101 32.0366C45.9101 30.9566 44.5801 30.3966 43.2701 30.1666C41.7001 29.8866 40.0401 30.0266 38.6101 30.7266C33.7901 33.0466 34.6001 38.8866 36.3001 43.0066Z" fill="#C89A81"/>
<path d="M33.2901 133.197C33.3801 132.957 33.4801 132.717 33.5701 132.477C33.5101 132.457 33.4501 132.447 33.3901 132.427C33.3901 130.137 33.3901 127.847 33.3901 125.557C33.3901 122.557 33.5301 119.667 33.8001 116.697C34.5801 107.907 33.5601 99.0266 34.2801 90.0666C34.4501 87.9866 34.6401 85.8866 35.1401 83.8566C35.8001 81.2066 35.8301 80.8566 38.1901 80.3866C41.8601 79.6666 46.9401 79.6066 50.5501 80.6266C50.5801 97.7166 49.6201 116.657 48.1401 133.627C48.0301 133.627 47.9201 133.627 47.8201 133.627C48.7001 134.377 49.7001 134.997 50.7701 135.437C51.0301 135.547 51.3101 135.647 51.5201 135.847C51.9501 136.267 51.8801 137.067 51.3901 137.407C50.9301 137.727 50.3101 137.617 49.7701 137.497C48.2201 137.157 46.6701 136.817 45.1201 136.477C44.8401 136.417 44.5301 136.337 44.3401 136.127C44.1001 135.867 44.0801 135.487 44.0801 135.137C44.0701 134.627 44.0701 134.117 44.0601 133.617C44.0101 133.617 43.9601 133.617 43.9201 133.617C42.7601 124.397 43.4901 103.787 43.2101 94.5466C42.6901 98.8466 41.3101 113.187 40.2801 118.547C39.8001 121.027 39.2401 123.447 38.8401 125.947C38.6301 127.227 38.4101 128.497 38.1601 129.757C37.9501 130.847 37.5601 131.977 37.5901 133.107C37.5101 133.117 37.4401 133.117 37.3601 133.127C37.9001 134.177 38.6001 135.137 39.4401 135.957C39.6401 136.157 39.8601 136.357 39.9801 136.617C40.2201 137.167 39.8501 137.887 39.2701 138.017C38.7301 138.137 38.1901 137.807 37.7301 137.497C36.4201 136.597 35.1101 135.707 33.8001 134.807C33.5601 134.647 33.3101 134.467 33.2001 134.187C33.0401 133.887 33.1701 133.527 33.2901 133.197Z" fill="#272826"/>
<path d="M43.7601 49.3366C44.2101 49.0666 44.6701 48.7266 45.1901 48.7566C45.6101 48.7766 45.9901 49.0266 46.2601 49.3466C46.7401 49.9066 46.9601 50.6466 47.1401 51.3566C48.4401 56.3066 51.3501 60.8866 51.6801 65.9966C51.7601 67.1966 51.8101 68.4066 51.5601 69.5866C51.1401 71.5166 49.9301 73.2366 49.7601 75.2066C49.6701 76.2366 49.7901 77.4666 48.9701 78.1066C48.5801 78.4066 48.0701 78.4866 47.5801 78.5466C45.8501 78.7766 44.1101 79.0166 42.3801 79.2466C41.1301 79.4166 39.7901 79.5666 38.6701 79.0066C37.2701 78.3066 36.6101 76.6966 36.1401 75.2066C34.3701 69.5766 33.7701 63.6466 33.1801 57.7766C32.9101 55.1166 32.3901 49.0566 36.3101 48.7066C37.7301 48.5866 39.1701 49.3466 40.5301 49.6266C42.3401 50.0066 42.1701 50.3066 43.7601 49.3366Z" fill="#EDEDED"/>
<path d="M45.8901 71.1866C47.8701 71.1166 50.1401 71.0165 51.5401 72.1265C52.1101 72.5765 52.4501 73.1765 52.7201 73.7665C54.1001 76.7565 54.2101 80.0066 54.3201 83.1866C54.4901 88.3766 54.6501 93.5766 54.4201 98.7566C54.4101 98.9666 54.3901 99.1966 54.2301 99.3666C54.0101 99.6066 53.6001 99.6665 53.2201 99.7065C47.8401 100.277 42.3901 100.427 36.9701 100.137C34.9301 100.027 32.5501 99.6766 31.6501 98.2466C31.2501 97.6166 31.2301 96.8765 31.2601 96.1765C31.3801 93.0865 32.2201 90.0466 32.6001 86.9766C33.0701 83.2566 32.8701 79.4966 33.3901 75.7766C33.7301 73.3766 34.1201 70.7266 37.9301 70.9166C40.6001 71.0366 43.2001 71.2866 45.8901 71.1866Z" fill="#E6E6E6"/>
<path d="M37.8201 71.0766C37.7901 70.9166 37.6601 70.8266 37.5001 70.7866C37.4001 70.7866 37.2901 70.7966 37.1901 70.8166C37.0901 70.8666 37.0201 70.9466 37.0201 71.0666C36.9101 80.5966 34.8601 90.0266 33.6001 99.4866C33.5901 99.5266 33.6001 99.5666 33.6001 99.5966C33.8901 99.7066 34.1601 99.8266 34.4701 99.8866C34.6701 99.9266 34.8701 99.9466 35.0701 99.9866C35.2501 99.8766 35.3701 99.7066 35.3801 99.4766C35.6801 89.9866 39.3901 80.6266 37.8201 71.0766Z" fill="#4F5459"/>
<path d="M41.4501 71.0666C41.4401 71.0466 41.4301 71.0366 41.4301 71.0266C41.1501 71.0366 40.8701 71.0466 40.5901 71.0466C40.5801 71.0466 40.5701 71.0466 40.5601 71.0466C40.5401 71.0866 40.5301 71.1266 40.5301 71.1766C40.4701 73.4766 40.7901 75.7766 40.5701 78.0866C40.3201 80.6766 39.5001 83.2166 38.9701 85.7766C38.0101 90.4366 37.4701 95.1166 37.3701 99.8266C37.3701 99.9866 37.4201 100.117 37.5001 100.227C38.0401 100.247 38.5801 100.287 39.1201 100.307C39.2501 100.187 39.3401 100.027 39.3601 99.8266C39.6401 94.6666 40.2701 89.5066 41.3601 84.4066C42.3201 79.9266 42.7601 75.5266 41.4501 71.0666Z" fill="#4F5459"/>
<path d="M45.1601 71.1566C44.8501 71.2166 44.5201 71.2066 44.2001 71.1966C43.8301 75.9266 43.6201 80.6366 43.1101 85.3766C42.6001 90.2166 42.1601 95.0766 42.2801 99.9366C42.2801 100.077 42.3301 100.197 42.4001 100.297C42.9201 100.167 43.6001 100.257 44.1001 100.267C44.1601 100.177 44.1901 100.067 44.1901 99.9366C44.2201 94.9466 44.6301 89.9766 45.1201 85.0066C45.5801 80.4466 46.2701 75.6766 45.1601 71.1566Z" fill="#4F5459"/>
<path d="M48.5001 71.0666H47.4101C47.9201 75.9366 47.5801 80.8166 47.3201 85.6866C47.1901 88.1166 47.0201 90.5566 46.8401 92.9866C46.6701 95.3266 46.1001 97.8166 46.6601 100.127C46.6701 100.177 46.6901 100.227 46.7101 100.267C47.2901 100.157 47.8901 100.147 48.4801 100.097C48.5201 99.9866 48.5401 99.8666 48.5101 99.7266C47.9501 97.3466 48.6901 94.6466 48.8801 92.2466C49.0801 89.6966 49.2301 87.1366 49.3601 84.5766C49.5701 80.0666 49.7801 75.5066 48.5001 71.0666Z" fill="#4F5459"/>
<path d="M52.8201 84.0566C52.7701 79.8266 53.0301 75.5066 50.9401 71.5466C50.7001 71.4566 50.4501 71.4066 50.1801 71.3866C50.1401 71.3866 50.1101 71.3766 50.0801 71.3666C51.8601 75.6766 50.8701 80.7066 50.8601 85.1666C50.8501 90.0466 50.9601 94.9466 51.3301 99.8166C51.3301 99.8666 51.3501 99.9166 51.3601 99.9666C51.7901 99.7366 52.4401 99.7466 53.0001 99.7466C53.0201 94.5066 52.8901 89.2766 52.8201 84.0566Z" fill="#4F5459"/>
<path d="M61.0601 61.6666C59.6501 63.6166 57.9301 65.3066 56.2201 66.9866C55.7501 67.4466 55.2801 67.9066 54.8201 68.3666C54.6801 68.5066 54.5401 68.6666 54.6201 68.9266C54.6601 69.0566 54.7501 69.1866 54.8501 69.3166C55.8801 70.7066 57.2801 71.9266 58.6601 73.0866C59.1301 73.4766 59.6201 73.8766 60.1401 74.0766C60.6501 74.2766 61.1101 74.2466 61.4601 74.0966C61.8101 73.9466 62.0601 73.6966 62.3101 73.4466C64.0801 71.6366 65.7701 69.7466 67.4201 67.8266C67.9201 67.2466 68.4101 66.6566 69.0301 66.1866C69.3401 65.9466 69.6901 65.7266 69.8701 65.3666C70.0501 65.0166 70.0401 64.4866 69.6701 63.9766C69.4701 63.6966 69.1801 63.4466 68.9001 63.2166C67.8301 62.3066 66.7601 61.4066 65.6901 60.4966C65.1901 60.0766 64.6701 59.6366 64.1201 59.3366C63.4401 58.9666 63.1801 58.9466 62.8701 59.2866C62.1801 60.0066 61.6401 60.8566 61.0601 61.6666Z" fill="#EDEDED"/>
<path d="M69.3401 65.1366C69.3601 64.8566 69.0001 64.4566 68.6801 64.1366C67.3501 62.8266 65.9401 61.5766 64.4701 60.4166C64.1201 60.1466 63.7201 59.8566 63.3601 59.7966C63.0101 59.7366 62.9401 59.9466 62.8101 60.1266C62.4501 60.6166 62.1301 61.1366 61.7801 61.6366C60.9701 62.7766 60.0001 63.7866 59.0401 64.7866C58.4701 65.3766 57.9001 65.9666 57.3301 66.5566C57.0701 66.8266 56.8201 67.0866 56.5001 67.2966C56.1501 67.5366 55.7201 67.8066 56.0001 68.3866C56.1501 68.7066 56.4901 69.0266 56.8101 69.3166C57.6601 70.0966 58.5101 70.8766 59.3601 71.6466C59.6501 71.9066 59.9401 72.1766 60.2601 72.3866C60.8001 72.7366 61.3801 72.8866 61.7501 72.7766C61.9701 72.7066 62.1101 72.5566 62.2501 72.4066C64.4901 69.9966 66.8101 67.6566 69.2001 65.3766C69.2601 65.3166 69.3301 65.2466 69.3401 65.1366Z" fill="white"/>
<path d="M44.4601 55.7566C44.8101 53.6766 44.9601 51.5566 44.9001 49.4466C44.9001 49.3766 44.8901 49.3066 44.8401 49.2666C44.7901 49.2366 44.7301 49.2366 44.6701 49.2466C43.8101 49.3966 42.7301 49.4166 41.9201 49.7266C41.4901 49.8966 41.6101 49.9566 41.8701 50.3366C42.1101 50.6766 42.3401 51.0166 42.5601 51.3666C42.9801 52.0466 43.3501 52.7566 43.6701 53.4866C43.9501 54.1166 44.4601 55.0666 44.4601 55.7566Z" fill="#C89A81"/>
<path d="M39.3801 50.7066C39.3201 50.7466 39.2501 50.8166 39.2701 50.8866C39.2801 50.9366 39.3401 50.9666 39.3901 50.9866C39.7101 51.1366 40.0301 51.2966 40.3401 51.4466C40.4501 51.4966 40.5701 51.5666 40.6101 51.6766C40.6801 51.8766 40.4801 52.0566 40.3201 52.1966C40.0501 52.4366 39.8501 52.7666 39.7601 53.1166C39.7501 53.1666 39.7401 53.2266 39.7601 53.2866C39.7801 53.3366 39.8401 53.3766 39.8901 53.4066C41.4901 54.3566 43.0901 55.3066 44.6901 56.2566C44.7401 55.5266 44.4501 54.8266 44.1601 54.1666C43.8001 53.3466 43.4201 52.5466 43.0201 51.7466C42.7001 51.0966 42.3001 50.3366 41.6501 49.9666C40.9801 49.5866 39.9401 50.3166 39.3801 50.7066Z" fill="#D6D6D6"/>
<path d="M46.5401 49.4565C46.7501 49.4765 47.0101 49.5766 47.0001 49.7766C46.9901 49.8666 46.9301 49.9366 46.8701 50.0066C46.6101 50.3066 46.3501 50.5966 46.0901 50.8966C46.3701 51.0166 46.6401 51.1366 46.9201 51.2566C47.0101 51.2966 47.1101 51.3466 47.1301 51.4466C47.1501 51.5366 47.0901 51.6166 47.0301 51.6966C46.2001 52.7766 45.5101 53.9765 45.0001 55.2365C44.8301 55.6465 44.6701 56.0866 44.3501 56.3966C44.5501 54.7766 44.6601 53.1466 44.6901 51.5066C44.7001 51.0266 44.4501 49.8466 44.8001 49.4666C45.1601 49.0966 46.1201 49.4065 46.5401 49.4565Z" fill="#D6D6D6"/>
<path d="M59.1901 63.4366C59.2701 63.4566 59.3001 63.5466 59.3201 63.6166C59.3601 63.8166 59.4001 64.0266 59.3201 64.2166C59.2701 64.3366 59.1801 64.4366 59.0901 64.5366C58.8701 64.7666 58.6401 64.9866 58.3501 65.1466C58.0701 65.3066 57.7301 65.3966 57.4001 65.3566C57.3701 65.3566 57.3401 65.3466 57.3201 65.3266C57.3001 65.3066 57.3001 65.2866 57.2901 65.2666C57.1701 64.8266 57.3001 64.3366 57.7401 64.0866C57.9101 63.9966 58.1201 63.9566 58.2901 63.8766C58.4901 63.7866 58.9701 63.3966 59.1901 63.4366Z" fill="#C89A81"/>
<path d="M54.7801 63.3066C54.9001 62.9966 55.0701 62.6466 55.4001 62.5566C55.7801 62.4466 56.1801 62.7966 56.2701 63.1866C56.3601 63.5766 56.2501 63.9766 56.1401 64.3666C56.0001 64.8266 55.8701 65.2766 55.7301 65.7366C55.6101 66.1466 55.4401 66.6066 55.0501 66.7666C54.8701 66.8466 54.6601 66.8466 54.4601 66.8266C54.3301 66.8166 54.2101 66.7966 54.1001 66.7466C53.6601 66.5166 54.1001 65.4866 54.1901 65.1166C54.3501 64.4966 54.5501 63.8966 54.7801 63.3066Z" fill="#D6D6D6"/>
<path d="M49.2001 35.5165C49.2401 35.7465 49.2601 35.9866 49.1501 36.1866C48.9901 36.4966 48.6001 36.5965 48.2501 36.5965C47.4601 36.5965 46.6701 36.2566 45.9001 36.4166C45.5501 36.4866 45.2301 36.6566 44.8901 36.7566C43.6001 37.1466 42.1601 36.6065 40.8601 36.9865C39.3401 37.4365 38.3901 39.2766 38.9201 40.7766C38.6901 40.3766 38.3801 39.9766 37.9401 39.8366C37.5001 39.6966 36.9101 39.9766 36.9001 40.4366C36.8901 40.9366 37.4701 41.2266 37.7501 41.6466C38.1001 42.1766 37.9301 42.8666 37.8801 43.4966C37.7901 44.6166 38.1301 45.7666 38.8201 46.6566C38.0401 45.9166 37.0301 45.4666 36.2001 44.7966C34.8901 43.7266 34.0901 42.1466 33.5401 40.5466C32.7201 38.1366 32.4101 35.4266 33.3901 33.0766C33.7301 32.2666 34.2101 31.5166 34.7401 30.8166C35.0701 30.3866 35.4301 29.9566 35.8901 29.6666C36.6701 29.1666 37.6501 29.1066 38.5801 29.0666C40.0401 28.9966 41.5101 28.9266 42.9601 29.1666C46.3201 29.7166 48.6701 32.1365 49.2001 35.5165Z" fill="#441A19"/>
<path d="M31.3901 30.4066C30.1701 30.3966 28.9801 30.8366 27.9401 31.4866C25.0001 33.3266 23.2801 36.9466 23.7101 40.3866C23.9501 42.3466 24.8201 44.1766 25.4601 46.0466C26.1001 47.9166 26.5101 49.9966 25.8301 51.8566C25.5901 52.5266 25.2101 53.1266 24.8301 53.7266C23.8001 55.3266 22.6301 56.9466 20.9201 57.7866C20.0301 58.2266 18.9101 58.4166 18.0701 57.8866C17.7601 58.7766 18.5301 59.6866 19.3401 60.1666C21.7701 61.6266 25.1701 61.2166 27.1901 59.2266C28.1301 58.3066 28.7601 57.1266 29.3301 55.9366C30.2501 54.0166 31.0401 51.9866 31.0801 49.8566C31.1001 48.5666 30.8401 47.2966 30.6501 46.0166C30.4601 44.7666 30.3401 43.5066 30.2801 42.2366C30.2501 41.4766 30.2401 40.6866 30.5601 40.0066C31.3701 38.2666 33.8401 37.8766 34.7701 36.1966C35.0501 35.6866 35.1601 35.1066 35.2701 34.5366C35.7101 32.1666 33.7201 30.4166 31.3901 30.4066Z" fill="#441A19"/>
<path d="M57.5701 70.8766C57.4901 70.9366 57.4501 71.0566 57.4601 71.1566C57.4701 71.2966 57.5601 71.4266 57.6901 71.4866C57.8201 71.5466 57.9701 71.5366 58.0901 71.4566C58.5001 71.1766 57.9301 70.5966 57.5701 70.8766Z" fill="white"/>
<path d="M57.2001 70.5965C56.6601 70.0165 55.6301 70.6566 54.9401 70.2966C54.7901 70.2166 54.6701 70.1066 54.5301 70.0066C54.1201 69.7366 53.5401 69.7366 53.1301 70.0066C52.8701 70.1766 52.6601 70.4366 52.3701 70.5466C52.1701 70.6166 51.9401 70.6066 51.7301 70.5866C47.5101 70.2966 43.2901 69.9965 39.0701 69.7065C38.3801 69.6565 37.6801 69.6166 37.0201 69.8166C36.3601 70.0166 35.7501 70.5166 35.6301 71.1966L35.3301 71.6666C39.0701 72.4966 42.8501 73.2766 46.6701 73.4466C49.0001 73.5466 51.3701 73.4366 53.6401 73.9666C54.5801 74.1866 55.6301 74.5066 56.4501 74.0066C57.2701 73.5166 57.4801 72.4266 57.4601 71.4766C57.4501 71.1566 57.4101 70.8265 57.2001 70.5965Z" fill="#C89A81"/>
<path d="M33.3301 49.8466C31.1301 51.8466 30.7801 55.1066 30.2101 58.0266C29.5701 61.2666 28.5001 64.4166 27.8301 67.6466C27.6301 68.6066 27.4801 69.6666 27.9301 70.5366C28.5901 71.7966 30.1901 72.1366 31.5901 72.3466C33.6801 72.6566 34.4201 72.7766 36.5101 73.0866C40.1401 73.6366 40.3701 73.3466 44.4801 73.8166C44.7901 73.8566 45.1101 73.7566 45.3801 73.5966C45.7401 73.3966 45.9601 73.0266 46.1401 72.6566C46.5501 71.8266 46.8301 70.9266 46.9701 70.0066C47.0601 69.4366 47.0701 68.7966 46.7001 68.3566C46.4001 68.0066 45.9301 67.8866 45.4801 67.7766C41.1301 66.6966 39.8801 67.7666 35.5301 66.6866C35.1601 66.5966 34.7801 66.5066 34.4501 66.3166C33.3001 65.6966 35.0601 62.8366 35.3301 61.5566C35.6001 60.2766 35.4601 58.6166 36.1301 57.4966C36.7201 56.5066 37.2401 55.4866 37.6901 54.4366C38.1201 53.4366 38.5001 52.3366 38.3101 51.2666C37.8801 48.8266 34.9901 48.3366 33.3301 49.8466Z" fill="#F2F2F2"/>
<path d="M43.8901 71.3465C44.1701 70.6265 44.5101 69.9366 44.7901 69.2166C44.9301 68.8666 45.0501 68.5066 45.1601 68.1466C45.2501 67.8466 45.3601 67.5066 45.6501 67.3866C45.8501 67.3066 46.0901 67.3565 46.2901 67.4265C46.6701 67.5565 47.0301 67.7266 47.3701 67.9366C47.4901 68.0066 47.6001 68.0966 47.6701 68.2166C47.7201 68.3066 47.7301 68.4165 47.7301 68.5165C47.7601 69.1565 47.5701 69.7766 47.3601 70.3866C46.9501 71.5666 46.4601 72.7065 45.8901 73.8165C45.8001 73.9965 45.7001 74.1766 45.5501 74.2966C45.0701 74.7066 44.0701 74.5766 43.5301 74.3366C42.8701 74.0466 43.2901 73.2266 43.4401 72.7166C43.5701 72.2566 43.7201 71.7965 43.8901 71.3465Z" fill="#D6D6D6"/>
<path d="M63.8501 68.4266C63.9001 68.2966 63.8601 68.1466 63.7901 68.0266C63.7201 67.9066 63.6101 67.8166 63.5001 67.7266C63.0601 67.3566 62.6001 67.0066 62.1601 66.6466C61.9401 66.4666 61.7201 66.2766 61.5101 66.0866C61.3701 65.9566 61.2501 65.7466 61.0901 65.6566C60.8901 65.5366 60.5801 65.6266 60.4101 65.7566C60.3501 65.8066 60.3001 65.8566 60.2701 65.9366C60.2501 66.0066 60.2501 66.0766 60.2701 66.1366C60.3101 66.2866 60.4201 66.4166 60.5301 66.5366C61.2101 67.2866 61.9701 67.9966 62.8501 68.5066C63.0201 68.6066 63.1901 68.6966 63.3801 68.7066C63.5801 68.6966 63.7901 68.6066 63.8501 68.4266Z" fill="#CBB190"/>
<path d="M60.7701 65.2166C60.6701 65.2966 60.6501 65.4466 60.6901 65.5666C60.7301 65.6866 60.8201 65.7766 60.9201 65.8566C60.9501 65.8766 60.9701 65.8966 60.9801 65.9266C61.0001 65.9866 60.9501 66.0566 60.9301 66.1166C60.9001 66.2566 61.0501 66.3766 61.2001 66.4066C61.3401 66.4366 61.5101 66.4366 61.6201 66.5266C61.7101 66.6066 61.7401 66.7366 61.7701 66.8466C61.8101 66.9666 61.8601 67.0866 61.9801 67.1266C62.1101 67.1766 62.2701 67.0866 62.4001 67.1366C62.5001 67.1666 62.5601 67.2666 62.6001 67.3666C62.6401 67.4666 62.6701 67.5666 62.7301 67.6466C62.8301 67.7766 63.0201 67.8266 63.1801 67.7866C63.2101 67.7766 63.2401 67.7666 63.2701 67.7866C63.2801 67.7966 63.2901 67.8066 63.3001 67.8166C63.3601 67.9166 63.3401 68.0666 63.4501 68.1166C63.5201 68.1566 63.6001 68.1266 63.6801 68.1466C63.8001 68.1866 63.8701 68.3566 64.0001 68.3466C64.0601 68.3366 64.1101 68.2866 64.1401 68.2366C64.2101 68.0766 64.1301 67.8866 64.0101 67.7766C63.8801 67.6566 63.7201 67.5966 63.5601 67.5266C63.2401 67.3866 62.9401 67.1966 62.7501 66.9166C62.6601 66.7766 62.5901 66.6166 62.4901 66.4966C62.2301 66.1866 61.7601 66.1166 61.5101 65.8066C61.3701 65.6366 61.0801 64.9466 60.7701 65.2166Z" fill="#82B68D"/>
<path d="M64.5301 67.3566C64.5601 67.2366 64.5301 67.1165 64.4601 67.0165C64.3901 66.9165 64.3001 66.8366 64.2101 66.7566C63.7301 66.3466 63.2501 65.9366 62.7701 65.5366C62.5401 65.3466 62.2901 65.1665 62.0701 64.9565C61.9601 64.8465 61.8701 64.6666 61.7201 64.6066C61.4401 64.4966 61.2101 64.7166 61.1401 64.9766C61.1001 65.1066 61.0801 65.2466 61.0601 65.3866C61.0501 65.4966 61.0401 65.6065 61.0901 65.7065C61.1301 65.7865 61.2001 65.8566 61.2701 65.9166C61.5401 66.1666 61.8101 66.4066 62.0801 66.6566C62.3901 66.9366 62.7101 67.2266 63.0601 67.4666C63.2501 67.5966 63.4601 67.7166 63.6801 67.7866C63.8001 67.8266 63.9401 67.8566 64.0601 67.8266C64.2001 67.7866 64.3201 67.6865 64.4101 67.5665C64.4601 67.4965 64.5101 67.4366 64.5301 67.3566Z" fill="#D9924E"/>
<path d="M64.9601 67.3466C65.0401 67.1866 65.0901 67.0066 65.0401 66.8366C65.0101 66.7366 64.9501 66.6466 64.8801 66.5666C64.7401 66.4066 64.5601 66.2766 64.3901 66.1566C63.9201 65.8166 63.4601 65.4566 63.0001 65.0966C62.7801 64.9166 62.5501 64.7366 62.3401 64.5466C62.2101 64.4366 62.1201 64.2666 61.9701 64.1866C61.7801 64.0966 61.4301 64.0866 61.3701 64.3466C61.3501 64.4566 61.4001 64.5666 61.4801 64.6466C61.5601 64.7266 61.6501 64.7766 61.7401 64.8466C61.7601 64.8666 61.7801 64.8766 61.7901 64.9066C61.8201 64.9666 61.7801 65.0466 61.7301 65.0866C61.6801 65.1366 61.6201 65.1765 61.5901 65.2365C61.5301 65.3565 61.6201 65.4966 61.7301 65.5766C61.8401 65.6566 61.9901 65.6966 62.1301 65.6866C62.2301 65.6766 62.3501 65.6566 62.4301 65.7266C62.5101 65.8066 62.4901 65.9366 62.4901 66.0466C62.5001 66.2466 62.6201 66.4366 62.7901 66.5466C62.9601 66.6566 63.1701 66.6966 63.3701 66.7066C63.4001 66.7066 63.4401 66.7066 63.4601 66.7266C63.5201 66.7566 63.5201 66.8366 63.5401 66.8966C63.5701 67.0466 63.6801 67.1866 63.8201 67.2566C63.9601 67.3266 64.1401 67.3266 64.2801 67.2566C64.2501 67.3066 64.2701 67.3666 64.3001 67.4066C64.3301 67.4466 64.3801 67.4666 64.4301 67.4966C64.5601 67.5566 64.7101 67.6166 64.8301 67.5466C64.8901 67.4766 64.9301 67.4066 64.9601 67.3466Z" fill="#82B68D"/>
<path d="M65.1401 66.2665C65.0801 66.0265 64.9201 65.8166 64.7601 65.6366C64.6101 65.4666 64.4901 65.2766 64.3401 65.1066C64.0101 64.7366 63.6001 64.4266 63.1501 64.2166C62.9001 64.0966 62.6401 64.0066 62.3601 63.9466C62.2101 63.9166 62.0501 63.8965 61.9301 63.9865C61.8201 64.0665 61.7801 64.2066 61.8001 64.3366C61.8101 64.4666 61.8701 64.5866 61.9301 64.6966C62.1401 65.0966 62.3701 65.4765 62.6601 65.8165C63.1201 66.3765 63.7301 66.8565 64.4501 66.9865C64.5901 67.0165 64.7401 67.0266 64.8701 66.9666C65.1101 66.8666 65.2001 66.5365 65.1401 66.2665Z" fill="#CBB190"/>
<path d="M66.9701 62.0266C66.8601 61.9266 66.7301 61.8566 66.6301 61.7366C66.6101 61.7166 66.6001 61.6966 66.5701 61.6866C66.5601 61.6766 66.5401 61.6766 66.5301 61.6766C66.5101 61.6766 66.4901 61.6766 66.4801 61.6766C66.4401 61.6866 66.4401 61.7266 66.4701 61.7566C66.5701 61.8866 66.7301 61.9666 66.8201 62.1066C66.8501 62.1466 66.8701 62.1866 66.9101 62.1966C66.9401 62.1966 66.9701 62.1866 66.9901 62.1666C67.0101 62.1566 67.0201 62.1366 67.0201 62.1166C67.0201 62.0766 67.0001 62.0466 66.9701 62.0266Z" fill="#9E9E9E"/>
<path d="M66.3001 61.4766C66.2901 61.4466 66.2401 61.4366 66.2101 61.4566C66.1801 61.4766 66.1701 61.5166 66.1801 61.5466C66.1801 61.5566 66.1801 61.5666 66.1901 61.5766C66.2001 61.5866 66.2101 61.5966 66.2301 61.5966C66.2601 61.6066 66.3001 61.5866 66.3101 61.5566C66.3201 61.5366 66.3201 61.4966 66.3001 61.4766Z" fill="#9E9E9E"/>
<path d="M61.2401 68.8366C61.2501 68.8466 61.2601 68.8566 61.2601 68.8766C61.2601 68.8966 61.2501 68.9066 61.2301 68.9166C61.1001 69.0166 60.9701 69.1266 60.8301 69.2266C60.7901 69.2566 60.7601 69.2866 60.7101 69.2866C60.6601 69.2866 60.6101 69.2466 60.5701 69.2166C60.3201 69.0066 60.0701 68.7866 59.8301 68.5766C59.6601 68.4266 59.4201 68.2866 59.4201 68.0266C59.4201 67.8466 59.5301 67.6766 59.7101 67.6466C59.9701 67.6066 60.2701 67.9566 60.4501 68.1066C60.7201 68.3366 60.9801 68.5866 61.2401 68.8366Z" fill="#9AA4AD"/>
<path d="M60.0001 67.9166C59.9901 67.9166 59.9801 67.9166 59.9701 67.9266C59.8701 67.9166 59.7701 67.9566 59.7101 68.0466C59.6501 68.1366 59.6901 68.2366 59.7901 68.2766C59.8901 68.3166 60.0001 68.2666 60.0601 68.1866C60.1401 68.0866 60.1201 67.9566 60.0001 67.9166ZM59.8101 68.2166C59.7201 68.1866 59.7301 68.0866 59.7901 68.0266C59.8401 67.9766 59.9001 67.9566 59.9601 67.9566C59.9601 67.9666 59.9701 67.9766 59.9801 67.9766C60.1401 68.0766 59.9501 68.2666 59.8101 68.2166Z" fill="#4F5459"/>
<path d="M60.1501 68.4966C60.1601 68.4666 60.1601 68.4266 60.1601 68.3966C60.1601 68.3866 60.1501 68.3366 60.1401 68.3066C60.1801 68.3166 60.2101 68.3366 60.2501 68.3266C60.2801 68.3266 60.3101 68.3066 60.3201 68.2766C60.3501 68.2066 60.2801 68.1366 60.2201 68.1066C60.2101 68.1066 60.2001 68.1066 60.2001 68.1066C60.1901 68.1066 60.1801 68.1066 60.1801 68.1166C60.1001 68.2066 60.0101 68.2866 59.9501 68.3866C59.9301 68.4166 59.9801 68.4566 60.0101 68.4266C60.0301 68.3966 60.0601 68.3666 60.0801 68.3366C60.0901 68.3966 60.0801 68.4466 60.0701 68.5066C60.0601 68.5466 60.1101 68.5766 60.1401 68.5466C60.1401 68.5466 60.1401 68.5466 60.1401 68.5366C60.1501 68.5266 60.1501 68.5066 60.1501 68.4966ZM60.1501 68.2366C60.1701 68.2066 60.1901 68.1866 60.2101 68.1566C60.2301 68.1666 60.2501 68.1866 60.2601 68.2066C60.2401 68.2466 60.2201 68.2666 60.1901 68.2466C60.1801 68.2466 60.1701 68.2366 60.1501 68.2366Z" fill="#4F5459"/>
<path d="M60.4701 68.2866C60.4501 68.2666 60.4101 68.2966 60.4301 68.3166C60.4701 68.3766 60.4801 68.4366 60.4401 68.4966C60.4001 68.5666 60.3101 68.5966 60.2401 68.5466C60.2901 68.4766 60.3401 68.4166 60.3901 68.3466C60.4101 68.3266 60.3801 68.2966 60.3601 68.3166C60.3001 68.3866 60.2301 68.4566 60.1701 68.5366C60.1501 68.5566 60.1601 68.5766 60.1801 68.5866C60.1801 68.5866 60.1801 68.5966 60.1901 68.5966C60.2601 68.7066 60.4201 68.6666 60.4901 68.5766C60.5601 68.4866 60.5501 68.3666 60.4701 68.2866Z" fill="#4F5459"/>
<path d="M60.5101 68.7966C60.4901 68.7966 60.4801 68.7866 60.4701 68.7766C60.4501 68.7666 60.4501 68.7666 60.4601 68.7566C60.4701 68.7366 60.5001 68.7066 60.5101 68.6966C60.5201 68.6866 60.5201 68.6866 60.5301 68.6766C60.5301 68.6866 60.5401 68.6866 60.5401 68.6966C60.5701 68.7166 60.6001 68.7366 60.6401 68.7266C60.6801 68.7266 60.6801 68.6766 60.6501 68.6666C60.6201 68.6566 60.6001 68.6566 60.5801 68.6366C60.5801 68.6366 60.5801 68.6366 60.5701 68.6366C60.5901 68.6066 60.6201 68.5866 60.6401 68.5566C60.6401 68.5666 60.6501 68.5766 60.6601 68.5766C60.6801 68.5866 60.7001 68.5966 60.7201 68.6166C60.7601 68.6466 60.8001 68.5766 60.7501 68.5466C60.7301 68.5366 60.7101 68.5266 60.6901 68.5166C60.6701 68.5066 60.6601 68.5166 60.6501 68.5266C60.6401 68.5166 60.6201 68.5066 60.6101 68.5266C60.5601 68.5766 60.5101 68.6166 60.4601 68.6666C60.4301 68.6966 60.3801 68.7266 60.3701 68.7766C60.3601 68.8166 60.4101 68.8466 60.4401 68.8766C60.4701 68.9066 60.5001 68.9166 60.5401 68.8966C60.5701 68.8566 60.5401 68.7966 60.5101 68.7966Z" fill="#4F5459"/>
<path d="M60.8301 69.1066C60.8201 69.0766 60.7701 68.8966 60.7501 68.9066C60.7601 68.8966 60.8401 68.9266 60.8601 68.9366C60.8901 68.9366 60.9201 68.9366 60.9501 68.9166C61.0501 68.8566 60.9801 68.7066 60.8901 68.6666C60.8801 68.6566 60.8601 68.6665 60.8601 68.6765C60.8501 68.6765 60.8501 68.6766 60.8401 68.6866C60.7501 68.7666 60.6701 68.8466 60.5901 68.9366C60.5601 68.9766 60.6101 69.0265 60.6501 68.9865C60.6601 68.9665 60.6801 68.9566 60.6901 68.9366C60.6901 68.9466 60.6901 68.9465 60.7001 68.9565C60.7201 69.0165 60.7501 69.0766 60.7601 69.1366C60.7501 69.1866 60.8401 69.1566 60.8301 69.1066ZM60.7901 68.8266C60.7801 68.8266 60.7801 68.8266 60.7701 68.8266C60.8001 68.7966 60.8301 68.7566 60.8601 68.7266C60.8901 68.7466 60.9301 68.7866 60.9101 68.8266C60.8901 68.8766 60.8201 68.8366 60.7901 68.8266Z" fill="#4F5459"/>
<path d="M67.9401 65.0166C68.0701 65.1366 68.2001 65.2566 68.3701 65.3166C68.5301 65.3766 68.7401 65.3566 68.8501 65.2266C68.9601 65.1066 68.9501 64.9166 68.8901 64.7666C68.8201 64.6166 68.7101 64.4966 68.5901 64.3866C68.3901 64.1966 68.1901 64.0066 67.9901 63.8166C67.1001 62.9866 66.1901 62.1866 65.2801 61.3866C65.1301 61.2566 64.9801 61.1266 64.8301 60.9966C64.4101 60.6366 64.0001 60.2666 63.5501 59.9366C63.4601 59.8766 63.3501 59.8066 63.2501 59.8466C63.2001 59.8666 63.1601 59.9166 63.1301 59.9566C62.9001 60.2666 62.9301 60.3166 63.2001 60.5766C63.4201 60.7966 63.6501 61.0066 63.8801 61.2166C64.3301 61.6466 64.7901 62.0766 65.2401 62.4966C65.6901 62.9266 66.1501 63.3466 66.6001 63.7766C66.8301 63.9866 67.0601 64.2066 67.2801 64.4166C67.4901 64.5966 67.7201 64.8966 67.9401 65.0166Z" fill="#B3BFC9"/>
<path opacity="0.22" d="M62.3401 137.577C62.3101 137.447 62.2101 137.347 62.1201 137.257C61.1601 136.387 59.8101 136.097 58.5201 135.907C53.4301 135.157 48.2501 135.397 43.1001 135.367L36.3501 135.217C34.7101 135.277 33.0801 135.727 31.6501 136.537C31.4901 136.627 31.3301 136.737 31.2601 136.907C31.1201 137.287 31.5801 137.597 31.9601 137.737C34.7401 138.707 37.7601 138.697 40.7101 138.687C47.6401 138.677 54.5901 138.797 61.5001 138.207C61.9001 138.167 62.4301 137.967 62.3401 137.577Z" fill="url(#paint0_linear_29_817)"/>
<path d="M167.49 136.258C169.76 136.218 172.04 136.168 174.27 135.778C174.54 135.728 174.87 135.628 174.92 135.358C174.99 134.998 174.53 134.788 174.16 134.728C172.96 134.548 171.73 134.508 170.52 134.478C162.53 134.258 154.54 134.038 146.55 134.108C145.02 134.118 143.49 134.148 141.97 134.348C141.22 134.448 139.69 134.498 139.18 135.158C138.69 135.788 139.29 136.158 139.88 136.338C141.74 136.928 144.24 136.518 146.17 136.518C150.72 136.518 155.28 136.458 159.83 136.388C162.38 136.358 164.94 136.308 167.49 136.258Z" fill="url(#paint1_linear_29_817)"/>
<path d="M167.49 136.258C169.76 136.218 172.04 136.168 174.27 135.778C174.54 135.728 174.87 135.628 174.92 135.358C174.99 134.998 174.53 134.788 174.16 134.728C172.96 134.548 171.73 134.508 170.52 134.478C162.53 134.258 154.54 134.038 146.55 134.108C145.02 134.118 143.49 134.148 141.97 134.348C141.22 134.448 139.69 134.498 139.18 135.158C138.69 135.788 139.29 136.158 139.88 136.338C141.74 136.928 144.24 136.518 146.17 136.518C150.72 136.518 155.28 136.458 159.83 136.388C162.38 136.358 164.94 136.308 167.49 136.258Z" fill="url(#paint2_linear_29_817)"/>
<path d="M159.07 45.6079C158.91 44.1979 157.15 43.0779 155.81 43.5179C154.45 43.9679 153.82 45.4679 153.05 46.6679C152.44 47.6179 151.66 48.4579 150.76 49.1279C150.34 49.4479 149.83 49.8479 149.92 50.3679C149.96 50.5779 150.09 50.7679 150.22 50.9379C150.75 51.6379 151.29 52.3279 151.98 52.8679C152.67 53.4079 153.52 53.7779 154.4 53.7179C156.01 53.6179 157.21 52.1579 157.79 50.6579C158.29 49.3279 159.23 47.0779 159.07 45.6079Z" fill="#97A8B2"/>
<path d="M152.15 71.388C152.15 71.388 145.67 124.468 145.65 132.338L149.52 132.448C149.52 132.448 159.64 89.578 162.02 87.218C162.02 87.218 163.01 87.038 163.39 87.218C163.77 87.398 163.17 130.928 162.53 133.848H165.75C165.75 133.848 174.3 82.928 173.96 71.698C173.96 71.698 172.15 66.0579 164.56 66.5679C156.97 67.0779 152.91 65.788 152.15 71.388Z" fill="#998675"/>
<path d="M174.73 73.1279C174.22 66.0279 172.12 51.7379 170.04 45.0879C169.93 44.7379 169.81 44.3779 169.59 44.1179C169.21 43.6679 168.64 43.6279 168.12 43.6179C166.83 43.5979 163.45 43.7679 162.17 43.8779C161.49 43.9379 158.29 43.7379 157.69 44.1279C156.93 44.6179 156.42 45.5279 155.97 46.4279C153.7 50.9779 154.8 56.3679 153.58 61.4879C152.96 64.0779 150.77 73.6079 150.81 75.9679C151.04 76.6079 151.24 77.2779 151.37 77.9479C152.7 79.8079 156.23 78.7879 158.01 80.0479C159.37 81.0079 160.89 81.4679 162.44 81.7579C162.76 81.7279 163.07 81.698 163.38 81.658C165.18 81.428 169.02 81.0079 170.64 80.0279C172.26 79.0479 173.77 80.6379 174.4 78.5579C174.91 76.8379 174.86 74.9479 174.73 73.1279Z" fill="#97A8B2"/>
<path d="M169.8 30.5179C169.44 29.7179 168.63 29.1979 167.79 28.9579C166.95 28.7179 166.06 28.7079 165.18 28.6679C164.2 28.6279 163.21 28.5379 162.23 28.6379C161.25 28.7279 160.26 29.0179 159.5 29.6379C158.74 30.2579 158.24 31.2579 158.38 32.2279L158.32 35.0879C158.18 37.2279 158.78 39.4179 159.99 41.1879C160.33 41.6879 160.73 42.1579 161.26 42.4579C161.89 42.8179 162.65 42.8879 163.38 42.8979C164.2 42.9079 165.05 42.8379 165.79 42.4679C166.39 42.1679 166.88 41.6879 167.35 41.1979C168.06 40.4679 168.76 39.6979 169.12 38.7479C169.65 37.3579 169.37 35.8079 169.59 34.3379C169.69 33.6979 169.88 33.0679 169.97 32.4279C170.07 31.7879 170.07 31.1079 169.8 30.5179Z" fill="#89796E"/>
<path d="M150.13 131.918C148.7 131.708 145.79 131.678 144.35 131.818C143.2 132.568 141.95 133.168 140.64 133.598C140.26 133.728 139.86 133.838 139.57 134.118C139.28 134.388 139.14 134.868 139.37 135.198C139.58 135.478 139.97 135.538 140.32 135.558C142.98 135.758 147.11 135.708 149.76 135.398C149.92 135.378 150.09 135.358 150.21 135.248C150.31 135.168 150.36 135.038 150.4 134.918C150.73 133.938 150.63 132.828 150.13 131.918Z" fill="#A58C41"/>
<path d="M166.88 132.168C166.88 132.168 162.26 132.338 161.78 132.618C161.3 132.898 160.81 135.418 161.59 135.778C162.38 136.138 171.19 135.238 171.19 135.238C171.19 135.238 171.92 134.198 169.73 133.568C167.55 132.938 167.2 132.938 166.88 132.168Z" fill="#A58C41"/>
<path d="M169.72 60.4879C167.9 60.6079 166.07 60.5879 164.25 60.4179C163.91 61.5779 163.57 62.7579 163.43 63.9579C163.37 64.4179 163.35 64.8879 163.49 65.3279C163.63 65.7679 163.97 66.1679 164.42 66.2579L165.47 66.8879C166.61 65.5279 168.17 64.5779 169.52 63.4179C170.45 62.6179 171.28 61.7179 172.11 60.8179C171.43 60.3579 170.54 60.4279 169.72 60.4879Z" fill="#CCCCCC"/>
<path d="M180.77 62.6579C180.84 63.4079 180.87 64.1979 180.49 64.8579C179.96 65.7779 178.8 66.1279 177.74 66.1379C175.17 66.1679 172.83 64.7279 170.79 63.1579C170.36 62.8279 169.93 62.4879 169.41 62.3079C168.74 62.0779 168 62.1679 167.31 62.0379C167.19 62.0179 167.05 61.9779 166.99 61.8679C166.94 61.7879 166.95 61.6879 166.96 61.5879C167.03 60.9079 167.11 60.2279 167.19 59.5479C168.22 59.3479 169.24 59.8579 170.21 60.2479C171.19 60.6379 172.21 60.9279 173.23 61.2079C173.72 61.3479 174.23 61.4779 174.74 61.4679C175.25 61.4579 175.79 61.2779 176.11 60.8879C176.41 60.5279 176.49 60.0379 176.45 59.5679C176.4 59.1079 176.23 58.6679 176.06 58.2279C175.43 56.6379 174.74 55.0579 173.67 53.7279C173.32 53.2979 172.91 52.8279 172.96 52.2779C173 51.8879 173.27 51.5579 173.6 51.3479C173.93 51.1479 174.32 51.0479 174.7 50.9779C175.32 50.8579 176.3 50.5579 176.87 50.9779C177.5 51.4379 177.78 52.6379 178.08 53.3279C178.9 55.2479 179.64 57.2079 180.15 59.2379C180.45 60.3679 180.66 61.5079 180.77 62.6579Z" fill="#89796E"/>
<path d="M168.16 60.7579C168.16 61.1879 167.86 61.5579 167.56 61.8679C167.04 62.3979 166.44 62.8679 165.74 63.1279C165.04 63.3879 164.23 63.3979 163.58 63.0479C162.93 62.6979 162.48 61.9379 162.6 61.2079C162.7 60.6079 163.16 60.1179 163.69 59.8279C164.22 59.5379 164.83 59.4179 165.43 59.3079C166.5 59.1079 168.16 59.2379 168.16 60.7579Z" fill="#89796E"/>
<path d="M178.12 51.0679C177.48 48.7179 175.71 46.8579 174.01 45.1179C172.59 43.6679 169.44 42.5879 168.29 45.0379C167.37 47.0079 169.17 50.4979 169.8 52.3579C169.98 52.8779 170.22 53.4679 170.73 53.6679C170.95 53.7479 171.18 53.7579 171.42 53.7479C173.6 53.6979 175.77 53.1079 177.67 52.0379C177.87 51.9279 178.08 51.7879 178.15 51.5679C178.21 51.4079 178.17 51.2379 178.12 51.0679Z" fill="#97A8B2"/>
<path d="M163.81 29.6579C164.05 29.6379 164.24 29.4579 164.39 29.2679C164.58 29.7279 165.33 29.7879 165.59 29.3579C165.69 29.6979 166.24 29.7779 166.43 29.4679C166.39 29.6479 166.57 29.8279 166.75 29.8479C166.93 29.8779 167.12 29.7979 167.29 29.7179C167.22 30.0779 167.71 30.3879 168.01 30.1679C167.9 30.6279 168.28 31.1379 168.75 31.1479C168.47 31.5979 168.67 32.2679 169.15 32.4879C168.84 32.8079 168.86 33.3979 169.19 33.6979C168.9 33.9279 168.93 34.4479 169.24 34.6379C169.1 34.7779 169.12 34.9979 169.15 35.1979C169.19 35.5179 169.24 35.8479 169.28 36.1679C169.04 36.2879 169.13 36.7279 169.39 36.7479C169.09 37.0479 169.09 37.5779 169.38 37.8779C169.21 37.9879 169.08 38.1579 169.03 38.3479C169.03 38.5279 169.31 38.4979 169.46 38.4079C170.09 38.0279 170.72 37.6279 171.32 37.2079C171.47 37.1079 171.62 36.9979 171.7 36.8279C171.78 36.6679 171.75 36.4379 171.6 36.3479C171.85 36.2479 172.11 36.1479 172.27 35.9279C172.43 35.7079 172.42 35.3479 172.19 35.2179C172.43 35.2579 172.66 35.0879 172.8 34.8879C172.94 34.6879 173.01 34.4479 173.13 34.2379C173.32 33.8879 173.63 33.4679 173.39 33.1479C173.47 32.9879 173.63 32.8879 173.77 32.7679C173.91 32.6579 174.05 32.5079 174.05 32.3279C174.05 32.1479 173.85 31.9679 173.7 32.0679C174.07 31.8679 174.31 31.4379 174.29 31.0179C174.39 30.7579 174.48 30.4979 174.55 30.2279C174.45 30.1879 174.35 30.1579 174.24 30.1179C174.47 29.7679 174.67 29.2279 174.33 28.9879C174.68 28.9179 174.82 28.3979 174.55 28.1579C174.48 28.0979 174.4 28.0579 174.36 27.9779C174.25 27.7979 174.43 27.5879 174.47 27.3879C174.54 27.0579 174.16 26.7179 173.83 26.8379C173.93 26.3979 173.56 25.9079 173.11 25.8879C173.02 25.8879 172.92 25.8979 172.84 25.8479C172.74 25.7879 172.71 25.6579 172.67 25.5579C172.56 25.2879 172.3 25.0779 172.01 25.0279C171.88 25.0079 171.74 25.0079 171.63 24.9379C171.51 24.8479 171.46 24.6879 171.36 24.5779C171.04 24.2479 170.41 24.6079 170.07 24.3079C169.92 24.1779 169.88 23.9579 169.71 23.8479C169.48 23.6979 169.16 23.8679 168.89 23.8379C168.52 23.7979 168.22 23.4179 167.86 23.4879C167.71 23.5179 167.59 23.6179 167.44 23.6379C167.18 23.6679 166.97 23.4379 166.75 23.2879C166.53 23.1379 166.13 23.1379 166.1 23.3979C165.82 22.9079 165 22.8579 164.66 23.3179C164.7 23.1679 164.39 23.1479 164.4 23.2979C164.15 23.1979 163.89 23.0879 163.62 23.0979C163.35 23.0979 163.06 23.2379 162.96 23.4879C162.64 23.3279 162.23 23.1679 161.95 23.3979C161.84 23.4879 161.78 23.6179 161.67 23.6979C161.45 23.8579 161.15 23.7779 160.88 23.7879C160.61 23.7979 160.28 24.0379 160.41 24.2779C160.16 24.2279 159.89 24.1879 159.65 24.2779C159.41 24.3679 159.23 24.6579 159.33 24.8879C158.93 24.9079 158.59 25.2879 158.61 25.6779C158.61 25.7679 158.63 25.8679 158.59 25.9579C158.55 26.0479 158.44 26.0879 158.36 26.1479C158 26.3679 157.86 26.8679 158.04 27.2479C157.78 27.3179 157.52 27.4079 157.34 27.5979C157.16 27.7879 157.09 28.1079 157.24 28.3179C157.3 28.3979 157.38 28.4579 157.41 28.5579C157.44 28.6879 157.34 28.8079 157.27 28.9379C157.12 29.2279 157.23 29.6379 157.52 29.7979C157.13 30.0179 157.04 30.6179 157.34 30.9579C157 31.3979 157.11 32.0379 157.25 32.5779C157.33 32.8979 157.41 33.2179 157.48 33.5379C157.3 33.7779 157.38 34.1779 157.65 34.3279C157.45 34.5079 157.53 34.8979 157.78 34.9879C157.8 35.4179 157.95 35.8379 158.2 36.1879C158.26 36.3279 158.45 36.1579 158.49 36.0179C158.68 35.2779 158.87 34.5479 159.06 33.8079C159.16 33.4079 159.26 32.9479 159.02 32.6079C159.33 32.3979 159.52 32.0279 159.54 31.6579C159.98 31.7679 160.43 31.2479 160.26 30.8279C160.72 30.9179 161.19 30.4479 161.1 29.9879C161.52 30.1379 162.03 29.7879 162.05 29.3479C162.17 29.6279 162.69 29.5279 162.69 29.2179C162.69 29.3679 163.2 29.2679 163.26 29.2979C163.49 29.4079 163.49 29.6879 163.81 29.6579Z" fill="#333333"/>
<path d="M165.39 65.8079C165.5 66.1679 165.53 66.5679 165.49 66.9479C158.97 67.4479 152.44 67.6579 145.91 67.5679C145.39 65.1179 147.21 65.8179 148.64 65.9279C150.53 66.0779 152.42 66.1679 154.31 66.2079C155.31 66.2179 165.32 65.5479 165.39 65.8079Z" fill="#F7F7F7"/>
<path d="M145.22 48.7979C152.08 48.6079 158.39 48.5379 165.06 47.8779C165.34 53.4779 165.83 60.8679 165.19 66.4279C160.63 66.9579 155.52 66.3879 150.94 66.6779C149.82 66.7479 148.66 66.9179 147.54 66.8679C146.42 66.8179 146.2 65.9279 146.06 64.6379C145.78 62.0079 145.87 59.2479 145.71 56.5979C145.67 55.8079 145.52 48.8379 145.22 48.7979Z" fill="#E6E6E6"/>
<path d="M157.11 59.3479C156.26 58.3579 155.81 56.9279 155.33 55.7279C155.25 55.5279 154.99 55.4679 154.87 55.6679C154.12 56.8879 153.45 58.1479 152.85 59.4479C152.71 59.7379 153.15 59.9979 153.29 59.7079C154.51 59.6579 155.73 59.6879 156.94 59.7779C157.17 59.7979 157.24 59.4979 157.11 59.3479ZM153.54 59.1979C154 58.2379 154.5 57.2979 155.05 56.3879C155.43 57.3679 155.82 58.3979 156.41 59.2479C155.2 59.1479 154.39 59.1479 153.54 59.1979Z" fill="white"/>
<path d="M152.28 67.1979C152.6 66.9379 152.94 66.6379 153.03 66.2379C153.12 65.8379 152.94 65.4179 152.68 65.1079C152.41 64.7979 152.07 64.5679 151.74 64.3179C151.22 63.9179 150.74 63.4379 150.15 63.1579C149.56 62.8779 148.79 62.8379 148.29 63.2679C147.98 63.5379 147.83 63.9279 147.71 64.3179C147.42 65.2479 147.24 66.2179 147.19 67.1879C147.17 67.5579 147.17 67.9379 147.34 68.2579C147.53 68.6079 147.9 68.8279 148.28 68.9279C149.75 69.3079 151.22 68.0679 152.28 67.1979Z" fill="#89796E"/>
<g filter="url(#filter0_d_29_817)">
<rect x="75" y="38" width="57" height="57" rx="28.5" fill="url(#paint3_linear_29_817)" shape-rendering="crispEdges"/>
</g>
<path d="M116.949 79.1742H107.747M97.1294 48.193V55.2342V48.193ZM87.2196 55.2342H107.747H87.2196ZM102.084 55.2342C102.084 62.2753 97.8373 67.4389 89.3431 70.7247L102.084 55.2342ZM93.5902 60.8671C98.781 67.4389 103.028 70.7247 106.331 70.7247L93.5902 60.8671ZM106.331 84.103L112.702 66.5L119.073 84.103H106.331Z" stroke="black" stroke-width="2" stroke-linejoin="bevel"/>
<path d="M95.0059 74.2453L92.8824 76.3577H97.1294L95.0059 74.2453ZM99.9608 79.1741L102.084 81.2865L99.9608 83.3989V79.1741ZM94.652 81.2865H101.023Z" fill="black"/>
<path d="M95.0059 74.2453L92.8824 76.3577H97.1294L95.0059 74.2453ZM95.0059 74.2453V81.2865M94.652 81.2865H101.023M99.9608 79.1741L102.084 81.2865L99.9608 83.3989V79.1741Z" stroke="black" stroke-linejoin="bevel"/>
<defs>
<filter id="filter0_d_29_817" x="63" y="26" width="81" height="81" filterUnits="userSpaceOnUse" color-interpolation-filters="sRGB">
<feFlood flood-opacity="0" result="BackgroundImageFix"/>
<feColorMatrix in="SourceAlpha" type="matrix" values="0 0 0 0 0 0 0 0 0 0 0 0 0 0 0 0 0 0 127 0" result="hardAlpha"/>
<feMorphology radius="2" operator="dilate" in="SourceAlpha" result="effect1_dropShadow_29_817"/>
<feOffset/>
<feGaussianBlur stdDeviation="5"/>
<feComposite in2="hardAlpha" operator="out"/>
<feColorMatrix type="matrix" values="0 0 0 0 0.737255 0 0 0 0 0.819608 0 0 0 0 1 0 0 0 1 0"/>
<feBlend mode="normal" in2="BackgroundImageFix" result="effect1_dropShadow_29_817"/>
<feBlend mode="normal" in="SourceGraphic" in2="effect1_dropShadow_29_817" result="shape"/>
</filter>
<linearGradient id="paint0_linear_29_817" x1="31.2362" y1="136.953" x2="62.3512" y2="136.953" gradientUnits="userSpaceOnUse">
<stop/>
<stop offset="1"/>
</linearGradient>
<linearGradient id="paint1_linear_29_817" x1="138.999" y1="135.381" x2="174.937" y2="135.381" gradientUnits="userSpaceOnUse">
<stop stop-color="#4D4D4D"/>
<stop offset="1"/>
</linearGradient>
<linearGradient id="paint2_linear_29_817" x1="138.999" y1="135.381" x2="174.937" y2="135.381" gradientUnits="userSpaceOnUse">
<stop/>
<stop offset="1"/>
</linearGradient>
<linearGradient id="paint3_linear_29_817" x1="86.4" y1="46.7177" x2="120.265" y2="86.953" gradientUnits="userSpaceOnUse">
<stop stop-color="#D82727"/>
<stop offset="0.247917" stop-color="#B43E45" stop-opacity="0.81"/>
<stop offset="1" stop-color="#09C4FF"/>
</linearGradient>
</defs>
</svg>
