<svg width="245" height="245" viewBox="0 0 245 245" fill="none" xmlns="http://www.w3.org/2000/svg">
<path opacity="0.5" d="M125.632 214.78C100.05 220.555 82.4943 193.209 74.1243 166.608C69.5418 152.069 59.3058 152.208 58 123.5C72.6874 85.4885 47.3979 92.3842 49.7321 74.1092C52.2167 54.6753 63.5191 46.3123 81.3673 37.6369C103.115 27.1208 122.208 40.2123 142.216 48.2863C224.103 81.3549 261.109 164.87 151.496 205.079C142.387 208.45 134.088 212.82 125.632 214.78Z" fill="#F9CCCC"/>
<path opacity="0.1" d="M146.679 61.9661C146.383 61.022 145.383 60.5007 144.439 60.7966L132.94 64.432C131.996 64.7279 131.475 65.7284 131.771 66.6725L134.138 74.1547C134.434 75.0988 135.435 75.6202 136.379 75.3243L137.506 74.972C137.506 74.972 139.605 76.4234 140.338 76.8602C140.86 77.1702 141.578 76.9447 141.832 76.3811C142.184 75.6061 143.058 73.2106 143.058 73.2106L147.877 71.6888C148.821 71.3929 149.342 70.3925 149.046 69.4484L146.679 61.9661Z" fill="#3F3F3F"/>
<path d="M142.67 59.0916L130.34 62.9948C129.326 63.3189 128.776 64.3898 129.086 65.4043L131.623 73.4361C131.947 74.4506 133.018 75.0002 134.032 74.6902L135.23 74.3097C135.23 74.3097 137.484 75.8738 138.259 76.3388C138.823 76.677 139.598 76.4234 139.866 75.8316C140.246 75.0002 141.176 72.4216 141.176 72.4216L146.348 70.787C147.362 70.4629 147.912 69.392 147.602 68.3775L145.065 60.3457C144.769 59.3311 143.684 58.7675 142.67 59.0916Z" fill="url(#paint0_linear_30_1143)"/>
<path d="M142.712 63.2484L132.708 66.4188C132.384 66.5175 132.031 66.3484 131.933 66.0102C131.834 65.6861 132.017 65.3338 132.341 65.2352L142.346 62.0648C142.67 61.9661 143.022 62.1352 143.121 62.4734C143.219 62.7975 143.036 63.1498 142.712 63.2484Z" fill="#EDB7D5"/>
<path d="M143.6 66.0807L133.595 69.2511C133.271 69.3498 132.919 69.1807 132.82 68.8425C132.722 68.5184 132.905 68.1661 133.229 68.0675L143.233 64.8971C143.558 64.7984 143.91 64.9675 144.008 65.3057C144.107 65.6157 143.924 65.968 143.6 66.0807Z" fill="#EDB7D5"/>
<path d="M139.006 70.632L134.497 72.0552C134.173 72.1538 133.821 71.9706 133.722 71.6466C133.624 71.3225 133.807 70.9702 134.131 70.8716L138.64 69.4484C138.964 69.3497 139.316 69.5329 139.415 69.857C139.514 70.1811 139.33 70.5334 139.006 70.632Z" fill="#EDB7D5"/>
<path d="M149.683 179.946C152.243 180.036 154.803 179.986 157.363 179.936C164.503 179.806 171.653 179.676 178.793 179.546C179.903 179.526 181.343 179.286 181.423 178.436C181.493 177.676 180.363 177.196 179.413 176.966C175.993 176.156 172.393 175.996 168.843 175.856C163.613 175.656 158.383 175.486 153.153 175.356C149.883 175.276 146.533 175.216 143.493 176.056C141.833 176.516 139.383 178.466 142.023 179.416C142.753 179.676 144.233 179.556 145.023 179.626C146.563 179.776 148.123 179.896 149.683 179.946Z" fill="url(#paint1_linear_30_1143)"/>
<path d="M149.683 179.946C152.243 180.036 154.803 179.986 157.363 179.936C164.503 179.806 171.653 179.676 178.793 179.546C179.903 179.526 181.343 179.286 181.423 178.436C181.493 177.676 180.363 177.196 179.413 176.966C175.993 176.156 172.393 175.996 168.843 175.856C163.613 175.656 158.383 175.486 153.153 175.356C149.883 175.276 146.533 175.216 143.493 176.056C141.833 176.516 139.383 178.466 142.023 179.416C142.753 179.676 144.233 179.556 145.023 179.626C146.563 179.776 148.123 179.896 149.683 179.946Z" fill="url(#paint2_linear_30_1143)"/>
<path d="M162.793 174.896C162.803 174.946 162.813 174.996 162.853 175.036C162.903 175.096 162.993 175.096 163.073 175.096C163.633 175.086 164.203 175.046 164.753 174.946C164.993 174.906 165.283 174.806 165.333 174.566C165.353 174.456 165.313 174.336 165.273 174.236C165.033 173.606 164.793 172.976 164.553 172.346C164.543 172.326 164.533 172.296 164.513 172.286C164.483 172.266 164.443 172.256 164.413 172.256C164.013 172.246 163.613 172.286 163.213 172.366C162.963 172.416 162.493 172.446 162.373 172.716C162.253 172.976 162.453 173.416 162.513 173.676C162.613 174.076 162.703 174.486 162.793 174.896Z" fill="#F9E9DE"/>
<path d="M149.153 174.896C149.693 174.926 150.233 174.956 150.763 174.996C150.813 174.996 150.873 174.996 150.913 174.966C150.963 174.926 150.963 174.866 150.973 174.806C151.003 174.106 150.983 173.406 150.923 172.706C150.923 172.656 150.913 172.596 150.883 172.556C150.843 172.506 150.773 172.486 150.703 172.466C150.393 172.396 150.083 172.326 149.763 172.326C149.513 172.326 149.223 172.366 149.003 172.496C148.773 172.636 148.813 172.726 148.853 172.966C148.963 173.606 149.033 174.246 149.153 174.896Z" fill="#F9E9DE"/>
<path d="M161.763 172.716C162.873 172.956 164.053 172.816 165.073 172.326C163.923 168.456 163.583 167.316 162.443 163.446C162.083 162.226 161.713 160.986 161.563 159.726C161.383 158.166 161.533 156.586 161.683 155.026C162.263 148.966 163.743 128.886 164.323 122.836C164.373 122.326 164.423 121.806 164.263 121.316C163.813 119.926 159.783 119.686 158.323 119.566C158.003 119.536 155.613 119.526 155.353 119.706C155.053 119.916 152.683 119.486 152.633 119.846C151.933 124.596 154.573 134.586 154.613 139.676C154.623 141.366 155.303 152.186 155.433 153.876C155.663 156.846 156.583 159.986 157.823 162.706C159.723 166.886 159.973 167.836 161.763 172.716Z" fill="#97A8B2"/>
<path d="M153.543 120.416C153.183 120.126 149.593 119.856 149.133 119.846L143.413 119.936C143.283 129.176 145.123 154.546 146.893 163.616C147.653 167.526 148.523 168.846 148.533 172.826C149.373 172.826 150.203 172.826 151.043 172.826C151.323 160.366 154.443 134.446 154.733 121.986C154.743 121.366 154.033 120.816 153.543 120.416Z" fill="#97A8B2"/>
<path d="M150.423 91.4062C149.613 88.7162 146.553 88.3361 146.023 91.8061C145.543 94.9461 143.233 101.546 141.913 104.626C141.283 106.106 140.053 107.246 138.333 107.886C134.913 109.156 131.593 110.656 128.113 111.776C128.123 111.796 128.123 111.806 128.123 111.826C127.543 112.056 126.913 112.176 126.283 112.176C125.463 112.176 124.583 111.986 123.883 112.376C123.923 112.466 123.963 112.556 124.013 112.656C124.183 112.686 124.343 112.716 124.513 112.736C124.113 112.826 123.723 112.976 123.363 113.176C123.013 113.376 122.673 113.716 122.783 114.076C122.903 114.436 123.383 114.536 123.783 114.546C125.463 114.596 127.093 114.086 128.683 113.526C133.093 112.646 136.123 111.126 140.563 110.256C141.423 110.086 142.323 109.906 143.073 109.456C143.803 109.016 144.313 108.376 144.763 107.736C147.753 103.476 151.733 95.7162 150.423 91.4062Z" fill="#F9E9DE"/>
<path d="M157.153 85.8362C157.773 85.1862 158.253 84.2662 158.513 83.1262C158.993 81.0162 159.243 78.7962 158.733 76.7262C158.143 74.3462 156.053 71.7661 153.413 71.9861C150.323 72.2361 149.853 76.2762 149.623 78.9762C149.433 81.1162 149.813 83.3762 151.073 85.0262C152.973 87.4862 155.533 87.5562 157.153 85.8362Z" fill="#F9E9DE"/>
<path d="M144.763 174.556C145.253 174.566 145.753 174.596 146.243 174.676C146.823 174.756 147.403 174.896 147.983 174.836C148.243 174.806 148.493 174.746 148.753 174.706C149.153 174.646 149.553 174.656 149.953 174.656C150.323 174.666 150.693 174.666 151.063 174.676C151.163 174.676 151.283 174.686 151.363 174.746C151.453 174.816 151.483 174.926 151.503 175.036C151.593 175.446 151.643 175.866 151.643 176.286C151.643 176.536 151.623 176.816 151.453 176.996C151.333 177.126 151.153 177.196 150.983 177.246C150.653 177.326 150.313 177.346 149.973 177.366C148.223 177.466 146.463 177.556 144.713 177.446C144.103 177.406 142.993 177.496 142.543 177.006C142.163 176.596 142.353 175.936 142.583 175.506C143.023 174.686 143.923 174.546 144.763 174.556Z" fill="#537082"/>
<path d="M145.583 176.076C145.703 176.116 145.843 176.136 145.973 176.126C145.993 176.126 146.013 176.116 146.033 176.106C146.053 176.086 146.053 176.066 146.053 176.036C146.083 175.596 146.093 175.146 146.073 174.706C146.073 174.686 146.073 174.666 146.063 174.646C146.053 174.626 146.023 174.616 145.993 174.606C145.593 174.506 145.613 174.616 145.613 174.986C145.613 175.346 145.603 175.716 145.583 176.076Z" fill="#C1C1C1"/>
<path d="M146.953 175.866C146.953 175.906 146.953 175.946 146.983 175.976C147.013 175.996 147.053 175.996 147.083 175.986C147.193 175.966 147.303 175.956 147.413 175.936C147.433 175.936 147.453 175.926 147.463 175.916C147.483 175.896 147.483 175.876 147.483 175.846C147.493 175.476 147.493 175.106 147.493 174.736C147.493 174.716 147.493 174.696 147.483 174.686C147.473 174.666 147.453 174.666 147.433 174.656C147.263 174.606 147.103 174.696 146.953 174.656C146.933 175.056 146.953 175.466 146.953 175.866Z" fill="#C1C1C1"/>
<path d="M148.283 175.796C148.283 175.816 148.293 175.836 148.303 175.846C148.313 175.856 148.333 175.856 148.353 175.856C148.433 175.856 148.523 175.856 148.603 175.856C148.643 175.856 148.683 175.856 148.713 175.826C148.733 175.806 148.733 175.776 148.743 175.746C148.763 175.506 148.793 174.436 148.313 174.636C147.983 174.766 148.233 175.546 148.283 175.796Z" fill="#C1C1C1"/>
<path d="M162.373 175.146C162.513 174.906 162.673 174.666 162.893 174.496C163.123 174.316 163.403 174.206 163.683 174.116C164.043 174.006 164.423 173.936 164.803 173.986C165.383 174.066 165.903 174.456 166.233 174.946C166.563 175.436 166.733 176.016 166.813 176.606C166.833 176.736 166.843 176.876 166.803 177.006C166.753 177.136 166.653 177.226 166.533 177.306C166.173 177.546 165.733 177.636 165.303 177.686C164.663 177.766 164.013 177.796 163.363 177.826C163.063 177.836 162.743 177.846 162.453 177.746C161.993 177.586 161.753 177.306 161.823 176.836C161.913 176.236 162.073 175.676 162.373 175.146Z" fill="#537082"/>
<path d="M147.713 94.7661C146.733 102.616 144.663 110.276 143.003 118.016C142.843 118.766 142.683 119.546 142.893 120.286C143.183 121.316 144.133 122.046 145.143 122.416C146.233 122.826 147.413 122.906 148.573 122.976C152.883 123.216 157.203 123.216 161.503 122.976C162.093 122.946 162.703 122.906 163.233 122.636C164.143 122.186 164.653 121.156 164.763 120.146C164.883 119.136 164.673 118.126 164.513 117.116C163.553 111.046 164.293 104.796 163.223 98.7361C162.923 97.0061 162.473 95.2961 162.333 93.5461C162.253 92.5361 162.283 91.5162 162.073 90.5362C161.863 89.5462 161.363 88.5661 160.493 88.0461C158.913 87.1061 156.933 88.0362 155.113 88.2862C153.903 88.4462 152.673 88.2862 151.493 88.0062C150.583 87.7962 149.673 87.1661 149.013 87.9961C147.823 89.5061 147.943 92.9561 147.713 94.7661Z" fill="#EFEFEF"/>
<path d="M147.613 104.946C146.473 104.946 146.473 106.716 147.613 106.716C148.753 106.706 148.753 104.946 147.613 104.946Z" fill="#333333"/>
<path d="M150.013 100.416C148.873 100.416 148.873 102.186 150.013 102.186C151.153 102.176 151.153 100.416 150.013 100.416Z" fill="#333333"/>
<path d="M152.083 107.296C150.943 107.296 150.943 109.066 152.083 109.066C153.223 109.056 153.223 107.296 152.083 107.296Z" fill="#333333"/>
<path d="M153.583 96.8362C152.443 96.8362 152.443 98.6062 153.583 98.6062C154.723 98.5962 154.723 96.8362 153.583 96.8362Z" fill="#333333"/>
<path d="M146.223 112.026C145.083 112.026 145.083 113.796 146.223 113.796C147.353 113.786 147.363 112.026 146.223 112.026Z" fill="#333333"/>
<path d="M155.843 102.986C154.703 102.986 154.703 104.756 155.843 104.756C156.983 104.756 156.983 102.986 155.843 102.986Z" fill="#333333"/>
<path d="M145.363 118.656C144.223 118.656 144.223 120.426 145.363 120.426C146.503 120.426 146.503 118.656 145.363 118.656Z" fill="#333333"/>
<path d="M150.333 114.366C149.193 114.366 149.193 116.136 150.333 116.136C151.463 116.126 151.463 114.366 150.333 114.366Z" fill="#333333"/>
<path d="M154.303 118.966C153.163 118.966 153.163 120.736 154.303 120.736C155.433 120.726 155.443 118.966 154.303 118.966Z" fill="#333333"/>
<path d="M155.843 112.026C154.703 112.026 154.703 113.796 155.843 113.796C156.983 113.786 156.983 112.026 155.843 112.026Z" fill="#333333"/>
<path d="M162.793 118.966C161.653 118.966 161.653 120.736 162.793 120.736C163.923 120.726 163.923 118.966 162.793 118.966Z" fill="#333333"/>
<path d="M162.793 111.036C163.933 111.036 163.933 109.266 162.793 109.266C161.653 109.276 161.653 111.036 162.793 111.036Z" fill="#333333"/>
<path d="M150.333 93.4861C149.193 93.4861 149.193 95.2562 150.333 95.2562C151.463 95.2462 151.463 93.4861 150.333 93.4861Z" fill="#333333"/>
<path d="M154.303 91.4162C155.443 91.4162 155.443 89.6461 154.303 89.6461C153.163 89.6461 153.163 91.4162 154.303 91.4162Z" fill="#333333"/>
<path d="M159.643 88.4162C158.503 88.4162 158.503 90.1862 159.643 90.1862C160.783 90.1862 160.783 88.4162 159.643 88.4162Z" fill="#333333"/>
<path d="M161.933 98.5161C160.793 98.5161 160.793 100.286 161.933 100.286C163.073 100.286 163.073 98.5161 161.933 98.5161Z" fill="#333333"/>
<path d="M152.803 122.426C151.543 119.906 150.973 117.136 150.313 114.406C149.613 111.486 148.973 108.556 148.573 105.576C148.203 102.786 148.023 99.9862 148.013 97.1762C148.003 95.8162 148.043 94.4662 148.123 93.1162C148.183 92.0662 148.063 87.3462 150.253 88.0962C150.413 88.1562 150.533 87.8962 150.373 87.8162C148.563 86.8962 147.963 89.0462 147.793 90.4162C147.333 94.2262 147.263 98.0962 147.533 101.916C147.783 105.496 148.353 109.036 149.143 112.536C149.923 115.986 150.613 119.596 152.203 122.786C152.403 123.186 153.003 122.836 152.803 122.426Z" fill="#BC6269"/>
<path d="M163.823 103.386C163.763 103.196 163.483 103.276 163.523 103.466C164.743 109.876 166.053 116.306 163.633 122.616C163.473 123.046 164.163 123.236 164.323 122.806C166.723 116.536 165.773 109.646 163.823 103.386Z" fill="#BC6269"/>
<path d="M161.213 120.596C161.933 120.526 162.723 120.466 163.323 120.866C164.013 121.316 164.253 122.216 164.403 123.026C164.883 125.616 165.103 128.256 165.053 130.886C165.043 131.306 165.023 131.746 164.843 132.126C164.563 132.696 163.963 133.026 163.373 133.266C160.883 134.276 158.113 134.216 155.423 134.136C155.153 134.126 154.863 134.116 154.633 133.976C154.263 133.756 154.133 133.286 154.033 132.856C153.373 129.846 152.883 126.796 152.573 123.726C152.523 123.226 152.473 122.706 152.613 122.226C153.113 120.406 159.513 120.766 161.213 120.596Z" fill="#AA4A4D"/>
<path d="M162.823 123.006C162.363 127.306 155.703 128.466 154.113 124.306C154.063 124.176 153.863 124.226 153.903 124.366C155.463 129.146 162.773 127.686 163.313 123.016C163.353 122.696 162.853 122.696 162.823 123.006Z" fill="#BC6269"/>
<path d="M158.933 126.096C159.193 125.916 159.233 125.496 159.003 125.276C158.743 125.026 158.293 125.136 158.153 125.456C158.133 125.496 158.123 125.536 158.123 125.586C158.103 125.666 158.113 125.746 158.143 125.836C158.253 126.156 158.653 126.286 158.933 126.096Z" fill="#BC6269"/>
<path d="M162.263 103.836C162.173 101.626 161.923 99.4262 161.683 97.2262C161.593 96.4462 161.513 95.6562 161.273 94.9162C161.053 94.2262 160.723 93.5762 160.603 92.8662C160.523 92.3462 160.553 91.7862 160.273 91.3462C159.903 90.7762 159.153 90.6062 158.473 90.5562C157.693 90.4962 156.833 90.5261 156.253 91.0461C155.413 91.7961 155.553 93.1361 155.823 94.2361C156.083 95.2761 156.393 96.3162 156.613 97.3662C157.033 99.3662 157.113 101.426 157.523 103.426C157.863 105.086 157.823 106.716 157.943 108.416C158.133 111.136 157.563 113.786 157.053 116.466C156.753 118.056 156.433 119.676 156.443 121.296C156.153 122.236 155.903 123.186 155.623 124.136C155.593 124.246 155.573 124.396 155.673 124.456C155.743 124.496 155.823 124.466 155.893 124.496C155.973 124.526 156.013 124.626 156.023 124.706C156.103 125.126 155.923 125.546 155.803 125.956C155.683 126.366 155.623 126.856 155.893 127.186C156.053 127.386 156.303 127.486 156.553 127.536C156.983 127.636 157.463 127.606 157.823 127.356C158.393 126.966 158.523 126.196 158.583 125.516C158.713 124.266 158.803 123.006 158.883 121.756C159.863 117.276 160.853 112.796 161.833 108.316C161.983 107.646 162.133 106.966 162.203 106.276C162.313 105.466 162.303 104.646 162.263 103.836Z" fill="#F9E9DE"/>
<path d="M169.713 98.7961C169.373 98.5561 168.933 98.4862 168.633 98.1962C168.213 97.7962 168.213 97.1262 168.383 96.5762C168.543 96.0262 168.843 95.5062 168.913 94.9362C169.113 93.4462 167.833 92.2362 166.883 91.0662C164.353 87.9462 163.833 83.8062 163.753 79.9162C163.733 79.0662 163.823 78.1761 163.683 77.5461C163.693 77.4761 163.713 77.4061 163.723 77.3361C164.183 75.0761 163.473 73.6262 162.023 72.1062C159.663 69.6162 155.873 68.6162 152.643 69.8562C152.563 69.8862 152.473 69.9261 152.383 69.9561C151.273 70.9161 150.313 72.0862 149.903 73.6062C149.643 74.5462 149.563 75.6562 149.753 76.6362C149.793 76.7662 149.833 76.8961 149.883 77.0161C149.943 75.9761 150.133 74.8562 150.663 74.5662C151.133 74.2962 153.523 75.1061 154.233 75.0561C155.443 74.9761 157.593 74.1462 158.243 75.6062C158.573 76.3462 158.183 77.2062 157.883 77.9162C157.863 77.9562 157.853 77.9861 157.833 78.0261C157.653 78.4561 157.483 78.8961 157.453 79.0461C157.223 80.3361 157.053 81.5061 157.053 82.4661C156.593 84.1661 156.513 85.9861 156.573 87.7661C156.583 88.0261 156.593 88.2961 156.703 88.5261C157.123 89.4361 158.443 89.2162 159.423 89.4362C160.423 89.6662 161.193 90.4962 161.673 91.4062C163.013 93.9462 162.463 97.0262 162.793 99.8762C162.883 100.636 163.043 101.406 163.423 102.076C164.193 103.446 165.913 104.216 167.443 103.876C168.983 103.536 170.213 102.116 170.333 100.556C170.413 99.9061 170.253 99.1761 169.713 98.7961Z" fill="#8C6239"/>
<path d="M90.4331 181.666C92.9731 181.756 95.5031 181.706 98.0431 181.656C105.113 181.526 112.193 181.386 119.263 181.256C120.363 181.236 121.783 180.996 121.863 180.146C121.933 179.386 120.813 178.906 119.873 178.676C116.483 177.866 112.923 177.706 109.403 177.576C104.223 177.376 99.0431 177.216 93.8731 177.086C90.6431 177.006 87.3131 176.946 84.3031 177.796C82.6631 178.256 80.2331 180.216 82.8431 181.156C83.5631 181.416 85.0331 181.296 85.8131 181.366C87.3431 181.496 88.8831 181.616 90.4331 181.666Z" fill="url(#paint3_linear_30_1143)"/>
<path d="M90.4331 181.666C92.9731 181.756 95.5031 181.706 98.0431 181.656C105.113 181.526 112.193 181.386 119.263 181.256C120.363 181.236 121.783 180.996 121.863 180.146C121.933 179.386 120.813 178.906 119.873 178.676C116.483 177.866 112.923 177.706 109.403 177.576C104.223 177.376 99.0431 177.216 93.8731 177.086C90.6431 177.006 87.3131 176.946 84.3031 177.796C82.6631 178.256 80.2331 180.216 82.8431 181.156C83.5631 181.416 85.0331 181.296 85.8131 181.366C87.3431 181.496 88.8831 181.616 90.4331 181.666Z" fill="url(#paint4_linear_30_1143)"/>
<path d="M162.043 177.956C162.253 178.236 162.653 178.266 163.003 178.276C164.003 178.296 165.003 178.326 165.983 178.156C166.213 178.116 166.443 178.066 166.633 177.936C166.823 177.806 166.963 177.576 166.933 177.356C166.903 177.116 166.683 176.936 166.443 176.866C166.203 176.806 165.953 176.836 165.713 176.866C164.903 176.976 164.093 177.136 163.283 177.226C162.923 177.266 162.453 177.186 162.113 177.286C161.793 177.356 161.873 177.736 162.043 177.956Z" fill="white"/>
<path d="M142.613 177.496C142.773 177.636 143.003 177.676 143.213 177.696C144.293 177.816 145.383 177.796 146.473 177.786C147.253 177.776 148.043 177.766 148.823 177.756C149.533 177.746 150.243 177.736 150.933 177.596C151.093 177.566 151.253 177.526 151.383 177.426C151.513 177.336 151.623 177.186 151.623 177.026C151.623 176.946 151.593 176.866 151.533 176.806C151.423 176.706 151.253 176.726 151.103 176.746C148.503 177.156 145.853 177.186 143.243 176.856C143.053 176.836 142.693 176.746 142.543 176.916C142.393 177.076 142.463 177.376 142.613 177.496Z" fill="white"/>
<path d="M121.053 112.136C120.903 111.646 120.733 111.116 120.883 110.656C121.053 110.126 121.583 109.896 122.073 109.756C122.633 109.596 123.223 109.486 123.803 109.436C124.053 109.416 124.643 109.346 124.883 109.486C125.223 109.686 125.273 110.136 125.363 110.546C125.933 112.986 126.503 114.986 126.893 117.246C126.943 117.556 126.993 117.916 126.823 118.146C126.713 118.296 126.543 118.356 126.383 118.406C125.483 118.696 122.793 119.626 122.403 118.026C121.923 116.056 121.673 114.096 121.053 112.136Z" fill="#AA6A64"/>
<path d="M121.223 111.616C121.193 111.426 121.173 111.216 121.253 111.056C121.343 110.866 121.543 110.796 121.723 110.736C122.493 110.496 123.283 110.346 124.073 110.196C124.203 110.176 124.513 110.116 124.643 110.166C124.723 110.196 124.883 110.246 124.943 110.316C125.163 110.556 125.143 110.906 125.253 111.226C125.363 111.506 125.363 111.816 125.443 112.106C125.533 112.426 125.593 112.746 125.663 113.066C125.763 113.536 125.883 114.016 126.023 114.476C126.123 114.816 126.203 115.156 126.313 115.486C126.363 115.636 126.393 115.816 126.363 115.966C126.313 116.186 126.163 116.286 125.973 116.356C125.613 116.486 125.223 116.556 124.843 116.616C124.283 116.716 123.713 116.816 123.153 116.916C122.953 116.956 122.543 117.086 122.393 116.826C122.313 116.686 122.303 116.436 122.273 116.276C122.223 116.056 122.183 115.846 122.133 115.626C121.933 114.766 121.693 113.916 121.503 113.056C121.393 112.576 121.293 112.096 121.223 111.616Z" fill="white"/>
<path d="M123.463 109.916C123.403 109.916 123.333 109.926 123.263 109.936C123.113 109.966 122.963 109.996 122.813 110.026C122.723 110.046 122.613 110.076 122.613 110.126C122.613 110.146 122.643 110.166 122.673 110.176C122.823 110.216 123.573 110.116 123.593 109.976C123.583 109.936 123.533 109.916 123.463 109.916Z" fill="#5E625E"/>
<path d="M122.523 110.106C122.493 110.076 122.453 110.086 122.423 110.106C122.393 110.126 122.383 110.166 122.383 110.196C122.383 110.216 122.393 110.246 122.403 110.266C122.433 110.306 122.503 110.296 122.533 110.256C122.563 110.216 122.563 110.156 122.533 110.116L122.523 110.106Z" fill="#5E625E"/>
<path d="M124.383 117.426C124.323 117.496 124.303 117.596 124.303 117.696C124.303 117.746 124.313 117.786 124.323 117.836C124.363 117.946 124.463 118.036 124.573 118.066C124.683 118.106 124.803 118.096 124.913 118.056C124.943 118.046 124.973 118.036 124.993 118.016C125.023 117.996 125.033 117.956 125.043 117.926C125.083 117.796 125.083 117.656 125.013 117.536C124.893 117.326 124.553 117.226 124.383 117.426Z" fill="#EBEFEB"/>
<path d="M118.463 114.706C117.973 114.096 117.193 113.726 116.413 113.746C116.593 113.566 116.783 113.266 116.603 113.076C116.493 112.956 116.303 112.976 116.143 112.996C115.463 113.076 114.763 113.016 114.093 112.826C114.033 112.806 113.973 112.796 113.913 112.776C109.903 111.276 106.023 109.436 102.323 107.286C102.613 105.966 102.553 104.596 102.493 103.246C102.403 101.296 102.313 99.3561 102.233 97.4061C102.203 96.6561 102.133 95.8461 101.623 95.3061C100.713 94.3561 98.9631 94.9761 98.3531 96.1461C97.7431 97.3061 97.9131 98.7161 98.1031 100.016C98.6031 103.416 99.1031 106.826 99.6031 110.226C99.6631 110.616 99.7331 111.036 100.013 111.316C100.233 111.536 100.553 111.616 100.853 111.696C104.903 112.776 108.943 113.846 112.993 114.926C113.003 114.916 113.003 114.906 113.013 114.906C114.483 115.756 116.293 115.986 117.913 115.496C118.083 115.446 118.273 115.376 118.373 115.226C118.473 115.056 118.483 114.876 118.463 114.706Z" fill="#EADDD0"/>
<path d="M113.053 115.016C113.023 115.096 112.983 115.176 112.903 115.216C112.833 115.256 112.743 115.236 112.663 115.226C108.493 114.456 104.153 113.806 100.203 112.256C99.8831 112.126 99.5531 111.996 99.3131 111.746C99.0331 111.456 98.9031 111.046 98.7931 110.656C97.5031 106.146 96.2831 101.536 96.4431 96.8562C96.4731 95.8762 96.6031 94.8261 97.2431 94.0861C97.9531 93.2761 99.1031 93.0461 100.173 92.9061C100.863 92.8161 101.653 92.7661 102.193 93.2061C102.723 93.6361 102.833 94.3861 102.913 95.0561C103.163 97.3061 103.423 99.5661 103.673 101.816C103.843 103.336 104.013 104.856 104.193 106.376C104.223 106.666 104.263 106.966 104.393 107.226C104.663 107.766 105.273 108.026 105.833 108.256C107.823 109.066 109.783 109.966 111.703 110.946C112.223 111.216 113.833 111.866 114.023 112.466C114.133 112.806 113.673 113.376 113.533 113.686C113.323 114.176 113.263 114.536 113.053 115.016Z" fill="#E8E8E8"/>
<path d="M97.9032 177.746C98.3532 178.076 97.7431 178.326 97.4431 178.356C96.9031 178.396 96.3431 178.376 95.8231 178.266C95.6831 178.236 95.5431 178.206 95.4331 178.126C95.3431 178.066 95.2832 177.986 95.2132 177.906C95.0432 177.686 94.6331 177.336 94.5631 177.076C94.5131 176.866 94.6631 176.656 94.7731 176.466C95.0231 176.056 95.4431 175.636 95.4231 175.146C96.5931 175.256 97.7031 174.916 98.6731 175.176C98.7531 175.526 99.0631 175.806 98.9131 176.076C99.0031 175.896 101.823 176.506 102.153 176.556C102.693 176.646 103.233 176.726 103.773 176.766C104.193 176.796 105.013 176.626 105.253 176.996C105.333 177.126 105.363 177.276 105.383 177.426C105.393 177.536 105.393 177.656 105.353 177.756C105.283 177.936 105.083 178.076 104.873 178.136C102.563 178.866 100.253 177.716 97.9032 177.746Z" fill="#999999"/>
<path d="M105.353 121.026C105.203 120.576 104.723 120.336 104.273 120.156C101.333 119.016 98.1031 118.896 94.9431 118.916C93.3031 118.926 91.6732 118.966 90.0332 119.036C88.8932 119.086 86.5831 119.106 85.9931 120.336C85.3331 121.716 84.7532 124.446 85.0932 125.836C85.7032 128.366 85.4831 132.896 86.1631 136.156C86.0931 149.596 86.0231 163.026 85.9531 176.466C87.0431 176.496 88.1332 176.516 89.2232 176.546C89.3832 172.116 90.7431 167.796 91.8731 163.466C93.0631 158.886 93.9931 154.256 94.6831 149.596C94.9131 158.276 95.1431 166.966 95.3831 175.646C96.4731 175.646 97.5632 175.646 98.6532 175.646C98.6732 171.216 99.8931 166.866 100.883 162.516C103.183 152.426 105.153 136.606 104.983 126.326C105.083 124.796 105.173 123.266 105.373 121.806C105.403 121.546 105.433 121.276 105.353 121.026Z" fill="#4D4D4D"/>
<path d="M88.4231 178.616C88.8631 178.956 88.2431 179.196 87.9431 179.216C87.4031 179.246 86.8431 179.206 86.3231 179.086C86.1831 179.056 86.0431 179.016 85.9331 178.936C85.8431 178.876 85.7831 178.786 85.7231 178.706C85.5531 178.476 85.1531 178.116 85.1031 177.866C85.0531 177.656 85.2131 177.446 85.3331 177.256C85.5931 176.856 86.0331 176.436 86.0231 175.946C87.1831 176.086 88.3131 175.766 89.2731 176.056C89.3431 176.406 89.6431 176.696 89.4831 176.966C89.5831 176.786 92.3831 177.456 92.7131 177.526C93.2431 177.626 93.7831 177.716 94.3331 177.776C94.7531 177.816 95.5731 177.666 95.8031 178.036C95.8831 178.166 95.9031 178.316 95.9131 178.466C95.9231 178.576 95.9131 178.696 95.8731 178.796C95.7931 178.976 95.5931 179.106 95.3831 179.166C93.0431 179.846 90.7731 178.646 88.4231 178.616Z" fill="#999999"/>
<path d="M100.163 73.1762C99.0731 74.0062 98.4131 75.2762 97.8031 76.5062C97.0531 78.0362 96.3131 79.6262 96.2031 81.3262C96.1231 82.5862 96.3731 83.9262 95.8031 85.0462C97.9531 85.8662 100.063 86.7762 102.133 87.7762C105.083 84.5862 107.133 80.5762 107.983 76.3162C108.013 76.1762 108.033 76.0262 107.983 75.8862C107.923 75.7362 107.783 75.6362 107.653 75.5462C105.813 74.3262 103.683 73.6362 101.573 72.9462C101.353 72.8762 101.123 72.7962 100.893 72.8262C100.623 72.8562 100.383 73.0062 100.163 73.1762Z" fill="#EADDD0"/>
<path d="M105.163 118.276C105.063 116.056 105.013 113.826 105.043 111.606C105.093 106.506 104.823 101.436 104.453 96.3462C104.303 94.2862 104.133 92.2362 103.943 90.1762C103.873 89.3762 101.543 88.5362 100.963 88.4162C100.613 88.3462 100.273 88.2362 99.9431 88.1262C99.6231 88.0162 99.3031 87.8962 98.9931 87.7762C97.4031 87.1662 95.8231 86.5562 94.2331 85.9462C93.9931 85.8562 93.7431 85.7662 93.5031 85.8162C93.3131 85.8562 93.1531 85.9762 93.0031 86.0962C90.0431 88.4862 89.2331 92.3762 88.4231 95.9062C86.5931 103.846 85.5631 111.956 85.3431 120.076C85.3431 120.076 85.8131 121.366 87.4031 122.276C88.9931 123.186 94.7231 123.856 94.7231 123.856L102.523 123.006C102.493 123.016 105.283 122.126 105.163 118.276Z" fill="#EFEFEF"/>
<path d="M115.643 111.766C115.743 111.266 115.863 110.726 116.193 110.376C116.573 109.976 117.103 109.986 117.553 110.066C118.073 110.156 118.593 110.306 119.083 110.496C119.293 110.576 119.793 110.766 119.923 110.986C120.103 111.296 119.933 111.726 119.823 112.126C119.153 114.526 118.693 116.546 117.963 118.706C117.863 119.006 117.733 119.336 117.493 119.476C117.343 119.566 117.173 119.546 117.013 119.526C116.163 119.416 113.583 119.116 114.003 117.546C114.523 115.596 115.233 113.746 115.643 111.766Z" fill="#3D3D3D"/>
<path d="M116.013 111.366C116.083 111.186 116.153 110.996 116.293 110.886C116.453 110.756 116.643 110.776 116.813 110.796C117.533 110.906 118.243 111.096 118.943 111.296C119.053 111.326 119.333 111.406 119.413 111.506C119.463 111.566 119.563 111.676 119.583 111.766C119.653 112.076 119.463 112.376 119.413 112.706C119.363 113.006 119.223 113.276 119.153 113.566C119.083 113.886 118.983 114.196 118.883 114.506C118.743 114.966 118.623 115.436 118.513 115.906C118.433 116.246 118.343 116.576 118.283 116.916C118.253 117.076 118.193 117.236 118.103 117.366C117.963 117.546 117.803 117.566 117.623 117.546C117.273 117.506 116.933 117.406 116.603 117.316C116.103 117.166 115.613 117.026 115.113 116.876C114.933 116.826 114.553 116.776 114.553 116.476C114.553 116.316 114.663 116.096 114.703 115.936C114.763 115.726 114.823 115.516 114.883 115.296C115.113 114.446 115.323 113.596 115.563 112.746C115.703 112.286 115.853 111.826 116.013 111.366Z" fill="white"/>
<path d="M118.583 110.786C118.533 110.756 118.473 110.736 118.413 110.726C118.283 110.686 118.143 110.656 118.013 110.616C117.933 110.596 117.833 110.576 117.813 110.616C117.803 110.636 117.813 110.666 117.833 110.686C117.933 110.786 118.583 111.006 118.653 110.886C118.673 110.856 118.633 110.816 118.583 110.786Z" fill="#5E625E"/>
<path d="M117.743 110.556C117.733 110.526 117.703 110.506 117.663 110.516C117.633 110.526 117.603 110.546 117.593 110.586C117.583 110.606 117.573 110.636 117.583 110.656C117.593 110.706 117.643 110.726 117.683 110.706C117.723 110.686 117.743 110.636 117.743 110.586V110.556Z" fill="#5E625E"/>
<path d="M115.863 117.836C115.783 117.876 115.713 117.956 115.673 118.046C115.653 118.086 115.633 118.136 115.623 118.176C115.603 118.296 115.643 118.406 115.713 118.486C115.783 118.566 115.893 118.606 115.993 118.616C116.023 118.616 116.053 118.616 116.073 118.606C116.103 118.596 116.133 118.576 116.153 118.546C116.243 118.456 116.313 118.316 116.313 118.186C116.323 117.956 116.093 117.726 115.863 117.836Z" fill="#EBEFEB"/>
<path d="M100.853 80.3061C100.513 79.9461 100.083 79.5461 99.5831 79.6161C99.1231 79.6761 98.8031 80.1261 98.7131 80.5861C98.6231 81.0361 98.7031 81.5061 98.7331 81.9661C98.7431 82.0661 98.7331 82.1761 98.6731 82.2461C98.6031 82.3261 98.4831 82.3261 98.3731 82.3361C97.9631 82.3761 97.5831 82.5961 97.3431 82.9261C97.1631 83.1761 97.0631 83.4861 96.8431 83.7161C96.5531 84.0261 96.1131 84.1261 95.6931 84.1861C95.2831 84.2461 94.8831 84.2962 94.4731 84.3162C94.1431 84.3362 93.7531 84.3162 93.5631 84.0362C93.5231 83.9862 93.5031 83.9262 93.5131 83.8562C93.5331 83.7462 93.6431 83.6962 93.7331 83.6362C94.0731 83.4062 94.1931 82.9561 94.2131 82.5461C94.2431 82.1361 94.2131 81.7062 94.3931 81.3262C94.4931 81.1162 94.6531 80.9361 94.8131 80.7761C95.9731 79.5761 97.4931 78.7762 99.0831 78.3162C99.5031 78.1962 101.083 77.6261 101.443 77.9561C101.783 78.2661 100.943 79.8561 100.853 80.3061Z" fill="#D7C68E"/>
<path d="M106.693 77.9362C106.903 78.0562 107.103 78.2162 107.223 78.4162C107.303 78.5462 107.343 78.6962 107.413 78.8262C107.573 79.1362 107.873 79.3662 108.213 79.4362C108.213 79.1162 108.213 78.7862 108.223 78.4662C108.223 78.3962 108.223 78.3161 108.283 78.2661C108.363 78.1961 108.483 78.2361 108.573 78.1761C108.653 78.1261 108.663 78.0161 108.673 77.9261C108.693 77.5161 108.713 77.0862 108.573 76.6962C108.523 76.5562 108.443 76.4162 108.323 76.3362C108.193 76.2462 108.033 76.2361 107.873 76.2361C107.123 76.2161 105.563 76.3162 104.983 76.9062C104.373 77.5362 106.283 77.7062 106.693 77.9362Z" fill="#D7C68E"/>
<path d="M86.7031 119.286C86.8131 119.946 86.9631 120.616 86.8231 121.266C86.7231 121.726 86.4731 122.136 86.1831 122.486C84.8731 124.066 82.7431 124.536 80.7531 124.666C78.4131 124.826 75.7731 124.506 74.2431 122.616C73.3031 121.456 72.9631 119.866 73.0031 118.346C73.0431 116.826 73.4331 115.336 73.8131 113.876C74.7431 110.316 75.6831 106.756 76.6131 103.196C76.7631 102.626 76.9231 102.036 77.3131 101.616C77.8331 101.056 78.6231 100.906 79.3631 100.826C80.7231 100.666 82.1131 100.586 83.4431 100.896C84.5531 101.156 86.2531 101.886 86.7731 103.066C87.3531 104.396 86.9231 106.726 86.8331 108.146C86.5931 111.856 86.0631 115.606 86.7031 119.286Z" fill="#736357"/>
<path d="M88.8931 94.2262C90.0631 92.4362 91.7031 90.7762 93.9231 89.8762C96.1431 88.9762 99.0131 88.9862 100.943 90.2562C102.843 91.5062 103.473 93.6362 103.723 95.6262C104.183 99.2262 103.793 102.876 102.923 106.426C102.553 107.956 102.083 109.486 101.233 110.886C100.193 112.596 98.6231 114.036 96.9931 115.396C93.8331 118.026 90.1731 120.506 85.7631 121.276C85.2931 121.356 84.7831 121.436 84.4731 121.726C83.8731 122.286 84.4731 123.256 85.3431 123.466C86.2131 123.676 87.1431 123.386 87.9531 123.056C92.0331 121.406 95.3631 118.746 98.6131 116.136C99.7531 115.226 100.903 114.296 101.613 113.126C102.203 112.156 102.463 111.076 102.713 110.006C103.633 106.056 104.563 102.086 104.863 98.0662C104.983 96.3862 105.003 94.6762 104.443 93.0562C103.883 91.4362 102.683 89.9062 100.883 89.1162C99.8031 88.6462 98.5731 88.4462 97.3531 88.4162C94.4231 88.3462 91.4831 89.2162 89.2831 90.8062C88.3931 91.4462 87.5931 92.2362 87.2831 93.1862C87.0031 94.0362 87.1331 95.2062 88.0331 95.7662C88.3431 95.2962 88.5631 94.7262 88.8931 94.2262Z" fill="#736357"/>
<path d="M76.4231 96.2062C77.7331 94.5962 79.8031 93.3462 82.0931 93.2562C83.2731 93.2062 84.4431 93.4562 85.5631 93.7862C86.3731 94.0262 87.1831 94.3262 87.7931 94.8462C88.7631 95.6662 89.0531 96.9062 89.0931 98.0662C89.1431 99.3062 88.9631 100.556 88.5731 101.756C88.4231 102.226 88.2231 102.696 87.8231 103.046C87.2331 103.566 86.3231 103.706 85.4731 103.756C82.3131 103.976 79.1031 103.496 76.2131 102.386C74.5331 101.746 74.0431 101.586 74.5131 100.006C74.9131 98.6562 75.4931 97.3462 76.4231 96.2062Z" fill="#63564B"/>
<path d="M81.3431 115.036C81.7631 114.956 82.2631 114.866 82.5631 115.176C82.7131 115.336 82.7731 115.566 82.8131 115.786C83.0831 117.326 82.8731 118.946 82.2031 120.366C81.9831 120.836 81.7131 121.286 81.3331 121.636C80.5631 122.346 79.4631 122.546 78.4131 122.526C77.8031 122.516 77.1631 122.426 76.6631 122.086C75.8631 121.536 75.5931 120.496 75.5131 119.526C75.4431 118.656 75.4631 117.776 75.6031 116.916C75.6731 116.446 75.7631 115.036 76.2931 114.856C76.5631 114.766 77.1931 115.046 77.4831 115.096C77.9131 115.166 78.3531 115.216 78.7831 115.236C79.6431 115.266 80.5031 115.206 81.3431 115.036Z" fill="#63564B"/>
<path d="M75.3531 115.716C75.3331 115.796 75.3231 115.896 75.3831 115.956C75.4231 115.996 75.4831 115.996 75.5431 115.996C77.6031 116.086 79.6631 116.166 81.7231 116.256C82.0931 116.276 82.5031 116.276 82.7931 116.046C83.1531 115.766 83.1931 115.206 82.9731 114.816C82.7531 114.426 82.3131 114.186 81.8731 114.096C81.4331 114.006 80.9731 114.036 80.5231 114.056C79.2931 114.126 78.0531 114.186 76.8231 114.156C76.4831 114.146 76.1931 114.066 75.9231 114.316C75.6031 114.616 75.4431 115.306 75.3531 115.716Z" fill="#63564B"/>
<path d="M82.7431 107.046C82.8131 107.046 82.8831 107.046 82.9431 107.076C83.0431 107.126 83.0731 107.256 83.0931 107.366C83.1931 107.956 83.2031 108.576 83.1031 109.166C83.0931 109.236 83.0731 109.306 83.0231 109.336C82.9831 109.366 82.9231 109.366 82.8731 109.366C80.8831 109.316 78.8831 109.266 76.8931 109.196C76.8831 108.766 76.9131 108.326 77.0031 107.896C77.2331 106.806 78.5231 107.136 79.3831 107.116C80.5031 107.096 81.6231 107.076 82.7431 107.046Z" fill="#63564B"/>
<path d="M75.4231 105.406C75.4231 105.906 75.4431 106.416 75.3731 106.916C75.1931 108.266 74.4031 109.456 73.5431 110.526C73.8731 110.656 74.2131 110.786 74.5431 110.916C74.7531 110.436 74.9531 109.956 75.1631 109.486C75.3631 109.016 75.5731 108.536 75.7031 108.036C75.8631 107.416 75.8931 106.776 75.9331 106.136C75.9731 105.376 76.5331 102.586 75.9731 102.076C75.2631 102.396 75.4331 104.716 75.4231 105.406Z" fill="#63564B"/>
<path d="M107.003 122.626C107.403 122.966 107.823 123.306 108.323 123.456C108.823 123.606 109.433 123.526 109.763 123.116C110.113 122.676 110.033 122.016 109.723 121.546C109.413 121.076 108.923 120.766 108.453 120.466C108.773 120.586 109.103 120.186 109.033 119.856C108.953 119.516 108.623 119.306 108.293 119.206C107.963 119.106 107.613 119.086 107.293 118.956C107.003 118.846 106.573 118.786 106.333 118.596C105.293 117.776 104.883 117.216 103.503 115.896C103.113 115.526 102.773 115.136 102.413 114.736C102.163 114.456 101.933 114.156 101.643 113.916C101.213 113.556 100.493 113.476 100.083 113.096C99.7531 112.796 99.4531 112.536 98.9831 112.746C98.2331 113.096 98.3331 114.206 98.6931 114.786C99.2931 115.736 100.383 116.566 101.183 117.346C102.083 118.226 103.003 119.086 103.933 119.936C104.933 120.846 105.963 121.746 107.003 122.626Z" fill="#EDD5BE"/>
<path d="M98.1831 108.476C97.9531 108.216 97.7131 107.956 97.5731 107.636C97.4131 107.276 97.3832 106.866 97.3932 106.456C97.4432 104.706 98.2531 103.046 99.0431 101.436C99.5231 100.466 100.003 99.4962 100.583 98.5962C100.983 97.9762 101.483 97.1062 101.613 96.4062C101.763 95.5962 101.903 94.0362 101.803 93.7462C101.293 92.2162 100.073 90.8862 98.3731 90.8762C97.8931 90.8762 96.1431 91.5362 95.8031 91.8862C95.4031 92.2962 94.7031 93.4762 94.1931 94.0262C94.0331 94.2062 93.9531 94.4362 93.8731 94.6562C93.6531 95.2662 93.4432 95.8761 93.2232 96.4861C92.9632 97.2061 92.7132 97.9262 92.5332 98.6662C92.2832 99.6662 92.1732 100.696 92.2032 101.706C92.2332 102.606 91.9131 103.936 92.0531 104.816C92.1931 105.716 92.0732 106.876 92.2132 107.776C92.3132 108.416 92.4132 109.056 92.6532 109.646C92.8832 110.206 93.2431 110.706 93.6131 111.186C95.4031 113.476 102.033 118.756 104.203 120.676L106.323 118.316C104.263 116.866 99.8731 110.346 98.1831 108.476Z" fill="#E3E3E3"/>
<path d="M95.3931 73.1862C94.7731 73.6762 93.9731 73.8562 93.2731 74.2062C92.5731 74.5562 91.9031 75.2462 92.0231 76.0262C92.1731 76.9862 93.4431 77.5562 93.4131 78.5262C93.4031 78.8662 93.2231 79.1862 93.2031 79.5262C93.1331 80.4162 94.1431 81.0762 95.0331 81.0162C95.9231 80.9562 96.7031 80.4262 97.4731 79.9562C100.403 78.1762 103.793 77.1962 107.213 77.0962C107.783 77.0762 108.383 77.0862 108.893 76.8362C109.413 76.5962 109.823 76.0062 109.663 75.4562C109.443 74.6762 108.363 74.5362 107.893 73.8862C107.633 73.5262 107.583 73.0562 107.413 72.6462C107.093 71.9062 106.393 71.4262 105.713 70.9862C104.333 70.0762 102.873 69.1462 101.233 69.0162C99.7731 68.8962 98.2531 69.4562 97.0931 70.3162C96.0531 71.1062 96.4331 72.3562 95.3931 73.1862Z" fill="#D7C68E"/>
<g opacity="0.1" clip-path="url(#clip0_30_1143)">
<path d="M96.6519 47.3312L95.669 47.5151C92.4119 48.1248 90.2656 51.2594 90.8753 54.5166C91.4849 57.7737 94.6195 59.9199 97.8767 59.3103L98.8596 59.1263C102.117 58.5167 104.263 55.3821 103.653 52.1249C103.044 48.8678 99.9091 46.7215 96.6519 47.3312Z" fill="#3F3F3F"/>
<path d="M95.0319 58.8355C94.7608 58.2442 95.3076 58.0745 95.9471 57.9548L100.31 57.1382C100.949 57.0185 101.516 57.2878 101.477 57.9372L101.121 64.3546C101.094 64.8127 100.758 65.1932 100.307 65.2776L98.8933 65.5423C98.4422 65.6267 97.9916 65.3933 97.8003 64.9762L95.0319 58.8355Z" fill="#3F3F3F"/>
</g>
<g clip-path="url(#clip1_30_1143)">
<path d="M95.4227 46.5439L94.4398 46.7278C91.1826 47.3375 89.0364 50.4721 89.646 53.7293C90.2556 56.9864 93.3903 59.1327 96.6474 58.523L97.6304 58.3391C100.888 57.7294 103.034 54.5948 102.424 51.3376C101.814 48.0805 98.6798 45.9342 95.4227 46.5439Z" fill="url(#paint5_linear_30_1143)"/>
<path d="M93.8027 58.0482C93.5315 57.4569 94.0784 57.2872 94.7179 57.1675L99.0805 56.3509C99.72 56.2313 100.286 56.5005 100.247 57.1499L99.8921 63.5673C99.8646 64.0254 99.5289 64.4059 99.0779 64.4903L97.664 64.755C97.213 64.8394 96.7624 64.606 96.5711 64.1889L93.8027 58.0482Z" fill="url(#paint6_linear_30_1143)"/>
<rect x="91.2627" y="51.4958" width="1.11942" height="4.61773" rx="0.559708" transform="rotate(-100.062 91.2627 51.4958)" fill="#F3FFC1"/>
<rect x="94.5826" y="52.9267" width="1.11942" height="5.71526" rx="0.559708" transform="rotate(-100.062 94.5826 52.9267)" fill="#F3FFC1"/>
<rect x="97.9026" y="54.3577" width="1.11942" height="2.85818" rx="0.559708" transform="rotate(-100.062 97.9026 54.3577)" fill="#F3FFC1"/>
<rect x="92.1857" y="56.4274" width="1.11942" height="5.79475" rx="0.559708" transform="rotate(-100.062 92.1857 56.4274)" fill="#F3FFC1"/>
</g>
<rect x="101.889" y="47.0731" width="1.11942" height="4.61773" rx="0.559708" transform="rotate(-150.601 101.889 47.0731)" fill="#F3FFC1"/>
<rect x="89.5056" y="48.1458" width="1.11942" height="4.61773" rx="0.559708" transform="rotate(129.399 89.5056 48.1458)" fill="#F3FFC1"/>
<rect x="98.3213" y="43.9175" width="1.11942" height="3.79787" rx="0.559708" transform="rotate(-170.601 98.3213 43.9175)" fill="#F3FFC1"/>
<rect x="91.2741" y="44.632" width="1.11942" height="3.57306" rx="0.559708" transform="rotate(149.399 91.2741 44.632)" fill="#F3FFC1"/>
<rect x="92.784" y="37.8815" width="1" height="6" rx="0.5" transform="rotate(-10.6012 92.784 37.8815)" fill="#F3FFC1"/>
<defs>
<linearGradient id="paint0_linear_30_1143" x1="150.357" y1="68.7519" x2="132.723" y2="66.8231" gradientUnits="userSpaceOnUse">
<stop stop-color="#6FC7DA"/>
<stop offset="0.6927" stop-color="#FB68B9"/>
<stop offset="1" stop-color="#FF95C3"/>
</linearGradient>
<linearGradient id="paint1_linear_30_1143" x1="140.915" y1="176.994" x2="181.395" y2="178.991" gradientUnits="userSpaceOnUse">
<stop stop-color="#4D4D4D"/>
<stop offset="1"/>
</linearGradient>
<linearGradient id="paint2_linear_30_1143" x1="140.915" y1="176.994" x2="181.395" y2="178.991" gradientUnits="userSpaceOnUse">
<stop/>
<stop offset="1"/>
</linearGradient>
<linearGradient id="paint3_linear_30_1143" x1="81.7514" y1="178.719" x2="121.836" y2="180.696" gradientUnits="userSpaceOnUse">
<stop stop-color="#4D4D4D"/>
<stop offset="1"/>
</linearGradient>
<linearGradient id="paint4_linear_30_1143" x1="81.7514" y1="178.719" x2="121.836" y2="180.696" gradientUnits="userSpaceOnUse">
<stop/>
<stop offset="1"/>
</linearGradient>
<linearGradient id="paint5_linear_30_1143" x1="94.9312" y1="46.6359" x2="109.765" y2="52.5072" gradientUnits="userSpaceOnUse">
<stop stop-color="#F1FF4B"/>
<stop offset="1" stop-color="#FFDA56"/>
</linearGradient>
<linearGradient id="paint6_linear_30_1143" x1="94.9312" y1="46.6359" x2="109.765" y2="52.5072" gradientUnits="userSpaceOnUse">
<stop stop-color="#F1FF4B"/>
<stop offset="1" stop-color="#FFDA56"/>
</linearGradient>
<clipPath id="clip0_30_1143">
<rect width="13" height="18" fill="white" transform="translate(90.7544 48.435) rotate(-10.6012)"/>
</clipPath>
<clipPath id="clip1_30_1143">
<rect width="13" height="18" fill="white" transform="translate(88.5422 47.8317) rotate(-10.6012)"/>
</clipPath>
</defs>
</svg>
